<?xml version="1.0" encoding="UTF-8" standalone="no"?>
<!-- Created with Inkscape (http://www.inkscape.org/) -->

<svg
   xmlns:dc="http://purl.org/dc/elements/1.1/"
   xmlns:cc="http://creativecommons.org/ns#"
   xmlns:rdf="http://www.w3.org/1999/02/22-rdf-syntax-ns#"
   xmlns:svg="http://www.w3.org/2000/svg"
   xmlns="http://www.w3.org/2000/svg"
   xmlns:xlink="http://www.w3.org/1999/xlink"
   xmlns:sodipodi="http://sodipodi.sourceforge.net/DTD/sodipodi-0.dtd"
   xmlns:inkscape="http://www.inkscape.org/namespaces/inkscape"
   width="744.09448819"
   height="1052.3622047"
   id="svg2"
   version="1.1"
   inkscape:version="0.48+devel r9772"
   sodipodi:docname="psycho-2.svg">
  <defs
     id="defs4">
    <linearGradient
       id="linearGradient4488-6-79"
       inkscape:collect="always">
      <stop
         id="stop4490-7-20"
         offset="0"
         style="stop-color:#55a11e;stop-opacity:1" />
      <stop
         id="stop4492-5-2"
         offset="1"
         style="stop-color:#417d22;stop-opacity:1" />
    </linearGradient>
    <linearGradient
       y2="-231.175"
       x2="-360.80801"
       y1="-95.6194"
       x1="-360.146"
       gradientTransform="translate(196.841,-371.918)"
       gradientUnits="userSpaceOnUse"
       id="linearGradient4680"
       xlink:href="#linearGradient4488-6-79"
       inkscape:collect="always" />
    <linearGradient
       id="linearGradient4488-6-62"
       inkscape:collect="always">
      <stop
         id="stop4490-7-6"
         offset="0"
         style="stop-color:#55a11e;stop-opacity:1" />
      <stop
         id="stop4492-5-1"
         offset="1"
         style="stop-color:#417d22;stop-opacity:1" />
    </linearGradient>
    <linearGradient
       inkscape:collect="always"
       xlink:href="#linearGradient4488-6-62"
       id="linearGradient4557-0"
       gradientUnits="userSpaceOnUse"
       gradientTransform="translate(196.841,-371.918)"
       x1="-360.146"
       y1="-95.6194"
       x2="-360.80801"
       y2="-231.175" />
    <linearGradient
       id="linearGradient4488-6-7"
       inkscape:collect="always">
      <stop
         id="stop4490-7-0"
         offset="0"
         style="stop-color:#55a11e;stop-opacity:1" />
      <stop
         id="stop4492-5-93"
         offset="1"
         style="stop-color:#417d22;stop-opacity:1" />
    </linearGradient>
    <linearGradient
       inkscape:collect="always"
       xlink:href="#linearGradient4488-6-7"
       id="linearGradient4557-2"
       gradientUnits="userSpaceOnUse"
       gradientTransform="translate(196.841,-371.918)"
       x1="-360.146"
       y1="-95.6194"
       x2="-360.80801"
       y2="-231.175" />
    <linearGradient
       id="linearGradient4488-6-6"
       inkscape:collect="always">
      <stop
         id="stop4490-7-2"
         offset="0"
         style="stop-color:#55a11e;stop-opacity:1" />
      <stop
         id="stop4492-5-9"
         offset="1"
         style="stop-color:#417d22;stop-opacity:1" />
    </linearGradient>
    <linearGradient
       inkscape:collect="always"
       xlink:href="#linearGradient4488-6-6"
       id="linearGradient4557-5"
       gradientUnits="userSpaceOnUse"
       gradientTransform="translate(196.841,-371.918)"
       x1="-360.146"
       y1="-95.6194"
       x2="-360.80801"
       y2="-231.175" />
    <linearGradient
       id="linearGradient4488-6"
       inkscape:collect="always">
      <stop
         id="stop4490-7"
         offset="0"
         style="stop-color:#55a11e;stop-opacity:1" />
      <stop
         id="stop4492-5"
         offset="1"
         style="stop-color:#417d22;stop-opacity:1" />
    </linearGradient>
    <linearGradient
       inkscape:collect="always"
       xlink:href="#linearGradient4488-6"
       id="linearGradient4557"
       gradientUnits="userSpaceOnUse"
       gradientTransform="translate(196.841,-371.918)"
       x1="-360.146"
       y1="-95.6194"
       x2="-360.80801"
       y2="-231.175" />
  </defs>
  <sodipodi:namedview
     id="base"
     pagecolor="#ffffff"
     bordercolor="#666666"
     borderopacity="1.0"
     inkscape:pageopacity="0.0"
     inkscape:pageshadow="2"
     inkscape:zoom="0.60150394"
     inkscape:cx="372.04724"
     inkscape:cy="526.18109"
     inkscape:document-units="px"
     inkscape:current-layer="layer1"
     showgrid="false"
     inkscape:window-width="1440"
     inkscape:window-height="851"
     inkscape:window-x="0"
     inkscape:window-y="1"
     inkscape:window-maximized="1" />
  <metadata
     id="metadata7">
    <rdf:RDF>
      <cc:Work
         rdf:about="">
        <dc:format>image/svg+xml</dc:format>
        <dc:type
           rdf:resource="http://purl.org/dc/dcmitype/StillImage" />
        <dc:title></dc:title>
      </cc:Work>
    </rdf:RDF>
  </metadata>
  <g
     inkscape:label="Layer 1"
     inkscape:groupmode="layer"
     id="layer1">
    <path
       style="fill:#000000"
       d="m -19.835769,-6.65625 0,113.0625 4.49354,0 0,419.78125 0,436.40625 -7.920267,0 0,96.40625 797.974996,0 0,-96.40625 -12.09054,0 0,-436.40625 0,-419.78125 8.66381,0 0,-113.0625 -791.121539,0 z m 390.291359,257.875 c 46.96602,-0.20246 93.86955,17.30294 130.34498,52.5625 71.40144,69.02128 71.73614,180.46762 0.74353,249.09375 l -22.37071,21.625 31.90736,187.71875 31.87503,187.71875 -90.19406,0 -90.22639,0 37.56469,-38.34375 c 23.82962,-24.33997 36.85767,-40.71038 35.6897,-44.78125 -9.51338,-33.15734 -35.39874,-182.9958 -35.39874,-204.90625 0,-11.36626 -2.71472,-30.76437 -6.04527,-43.125 -5.71955,-21.22679 -5.57876,-23.54696 2.65086,-41.53125 l 8.72847,-19.03125 6.59482,9.75 c 12.10015,17.87488 20.82376,23.875 34.78452,23.875 17.36579,0 27.39691,-10.32972 30.29099,-31.1875 1.80193,-12.98656 0.69179,-16.80787 -6.04527,-20.875 -6.73252,-4.06435 -7.84201,-7.89471 -6.04527,-20.84375 1.72575,-12.43755 0.55241,-17.01227 -5.39871,-21.21875 -11.38972,-8.05074 -19.38376,-6.84591 -16.32545,2.46875 2.34132,7.13097 1.7212,7.41215 -6.91811,2.84375 -5.22539,-2.76311 -16.93584,-11.81716 -25.9914,-20.09375 -9.05558,-8.27655 -21.2018,-17.79248 -27.02589,-21.15625 -5.82405,-3.36377 -12.75789,-11.6395 -15.38796,-18.375 -3.9658,-10.15641 -3.64343,-13.45249 1.84269,-19.3125 5.06984,-5.41516 6.19235,-12.77904 4.78448,-31.59375 -2.12493,-28.3977 -8.59739,-35.4375 -32.61857,-35.4375 -18.57524,0 -29.8515,12.75756 -34.36426,38.875 -2.5244,14.61014 -1.67364,17.96394 6.07759,24.03125 5.38828,4.21774 8.42001,10.36741 7.56467,15.3125 -1.37414,7.94419 -2.18839,8.0558 -20.98063,2.71875 -14.18609,-4.0289 -19.52588,-7.57886 -19.52588,-12.90625 0,-12.56869 19.33947,-49.85685 28.6746,-55.28125 19.66306,-11.42573 -3.05686,-18.18844 -26.18538,-19.25 -11.44726,-0.52541 -73.18164,-1.99274 -73.83628,-6 -0.51645,-3.16141 16.50117,-26.63861 29.9677,-39.65625 36.80222,-35.57543 83.83154,-53.48504 130.79755,-53.6875 z M 209.5287,347.125 c 9.69296,0 59.15955,15.25961 59.15955,18.25 0,1.88921 -5.48278,6.17969 -12.18752,9.53125 -12.03848,6.01782 -13.89717,9.85195 -24.3427,50.40625 -3.4998,13.58802 -2.769,15.43401 11.25002,28.15625 8.24591,7.48323 20.13126,16.67933 26.41166,20.4375 10.35048,6.1936 11.34841,8.80072 10.70044,27.96875 -0.39317,11.63086 0.58217,23.17911 2.16595,25.65625 1.58374,2.47718 4.58455,14.73398 6.69182,27.25 3.18777,18.93347 2.68942,24.47997 -3.07112,32.90625 -3.80803,5.57022 -8.46527,19.05787 -10.34484,30 -3.50232,20.38874 -13.81517,117.32953 -17.78019,167.125 -1.21979,15.31899 -3.14036,33.66128 -4.26725,40.75 -2.1248,13.36643 -34.62288,53.96183 -34.62288,43.25 0,-3.30811 11.11495,-67.06568 24.69831,-141.6875 13.58334,-74.62183 24.6983,-138.30677 24.6983,-141.5 0,-3.19328 -11.72484,-16.96559 -26.05607,-30.625 C 201.47351,515.77074 183.2008,469.3386 187.51359,414.90625 189.71801,387.0839 202.69545,347.125 209.5287,347.125 z"
       id="path3150"
       inkscape:connector-curvature="0" />
    <g
       style="font-size:215.58015442px;font-style:normal;font-variant:normal;font-weight:normal;font-stretch:normal;text-align:start;line-height:125%;letter-spacing:0px;word-spacing:0px;writing-mode:lr-tb;text-anchor:start;fill:#d40000;fill-opacity:1;stroke:none;font-family:PortagoITC TT;-inkscape-font-specification:PortagoITC TT"
       id="text3158">
      <path
         d="m 185.23356,89.394696 c -1.72472,18.396254 -4.88656,27.594334 -9.48552,27.594264 -0.71868,7e-5 -1.65286,-0.21551 -2.80254,-0.64674 0.71852,2.58703 1.07782,3.95237 1.0779,4.09602 -8e-5,2.29959 -2.01216,4.38353 -6.03625,6.25182 -4.45539,2.15587 -10.20418,3.30563 -17.24641,3.44929 -0.43121,0.14378 -1.00609,0.21564 -1.72464,0.21558 -2.15585,6e-5 -3.88049,-1.00598 -5.17393,-3.01813 0.14368,-2.01201 0.2874,-4.95827 0.43117,-8.83878 1.14971,-0.71853 2.22761,-1.58085 3.2337,-2.58696 -1.86841,-0.86225 -3.01817,-2.29945 -3.44929,-4.31161 l -0.21558,-4.74276 c -4e-5,-1.58084 0.6467,-2.65874 1.94023,-3.2337 -5e-5,8e-5 1.86831,-0.5748 5.60508,-1.72464 2.87435,-3.449195 4.81457,-7.688933 5.82066,-12.719234 0.71855,-3.736617 1.65273,-5.676836 2.80255,-5.820664 -1.43726,-0.574772 -2.37144,-1.796392 -2.80255,-3.664863 -5e-5,-6.036127 -2.51515,-11.066325 -7.5453,-15.090611 l -0.86232,0 c -3.01817,1.27e-4 -4.52723,-1.508933 -4.52718,-4.527183 l 0,-4.742763 c 0.14367,-1.868224 1.22157,-3.233563 3.2337,-4.096023 -0.71865,-0.71846 -1.79655,-1.65264 -3.2337,-2.802542 l -0.21559,-8.623206 c 1.29344,-2.011928 2.94622,-3.017968 4.95835,-3.018123 0.86227,1.55e-4 1.50901,0.07202 1.94022,0.215581 l 1.94022,0 c 7.76083,1.54e-4 14.51566,2.587113 20.26454,7.760885 0.86224,1.006186 1.2934,2.012226 1.29348,3.018122 -8e-5,0.718744 -0.21566,1.437343 -0.64674,2.155802 0.28736,-0.143579 0.71852,-0.215439 1.29348,-0.21558 6.3236,1.41e-4 9.48544,9.557518 9.48552,28.67216 l 0,3.018122 c -0.57496,1.14987 -1.50914,2.37149 -2.80254,3.664863 l 0.43116,0 c 0.86224,1.06e-4 1.86828,1.437306 3.01812,4.311603 m -48.50553,82.136044 c -0.14376,-0.14371 -0.21562,-0.28743 -0.21558,-0.43117 -4e-5,2e-5 -0.0719,0.0719 -0.21558,0.21558 -4e-5,2e-5 0.0718,1.07792 0.21558,3.23371 0.14368,2.01209 0.21554,4.02417 0.21558,6.03624 l 0,6.46741 c -4e-5,2.1558 -0.71864,3.52114 -2.1558,4.09602 -0.71864,-0.14372 -1.72468,-0.21558 -3.01812,-0.21558 -1.00608,0 -2.08398,0.0719 -3.23371,0.21558 -1.14978,0.14372 -1.86838,0.21558 -2.1558,0.21558 -2.44326,0 -4.02418,-1.00604 -4.74276,-3.01812 -1.00606,1.86836 -2.65884,2.80254 -4.95834,2.80254 l -5.82067,0 c -1.00605,0 -1.50907,-0.79046 -1.50906,-2.37138 l 0,-0.43116 c -1e-5,-0.7186 -1e-5,-1.72464 0,-3.01813 -0.14373,-1.29347 -0.21559,-2.22765 -0.21558,-2.80254 -10e-6,-2.58695 0.14371,-5.53321 0.43116,-8.83878 0.14371,-1.58091 1.00603,-2.58695 2.58696,-3.01813 -0.28745,-0.71857 -0.79047,-1.50903 -1.50906,-2.37138 -1.00605,-5.03017 -1.50907,-10.56339 -1.50906,-16.59967 l 0,-4.95834 c -10e-6,-0.43112 -10e-6,-2.37134 0,-5.82067 -0.14373,-3.44923 -0.21559,-6.61106 -0.21558,-9.48552 l 0,-3.01813 c -1e-5,-8.19197 1.07789,-12.79101 3.2337,-13.79713 -1.14977,-0.5748 -2.08395,-1.58084 -2.80254,-3.01812 l 0,-42.900449 c -1e-5,-1.580797 0.79045,-3.017996 2.37138,-4.311603 l -2.37138,-2.802542 0,-22.420336 c 0.71859,-1.293327 2.22765,-1.940067 4.52718,-1.940221 l 3.01813,0 c 3.16182,1.54e-4 5.31762,0.862473 6.4674,2.586962 1.00602,-1.149609 2.37136,-1.940068 4.09602,-2.371382 2.58693,-0.287286 4.16785,-0.431006 4.74277,-0.43116 2.4432,1.54e-4 3.95226,0.718754 4.52718,2.155801 0.14368,2.012232 0.21554,5.317791 0.21558,9.916687 l -2.80254,2.586962 c 1.86832,1.724779 2.8025,4.383598 2.80254,7.976466 -4e-5,14.228407 -0.0719,31.331082 -0.21558,51.308075 l -0.64674,2.1558 c -0.86236,0.8624 -1.5091,1.9403 -1.94022,3.23371 1.58088,1.14983 2.4432,2.51517 2.58696,4.09602 l 0.21558,37.72653 c -4e-5,1.29351 -0.86236,3.16187 -2.58696,5.60508 1.7246,1.86839 2.58692,4.16791 2.58696,6.89856 l 0,0.86233"
         style=""
         id="path3327" />
      <path
         d="m 265.50349,69.345742 c -8e-5,2.299641 0.0718,4.5273 0.21558,6.682985 0.14364,2.155914 0.2155,3.161954 0.21558,3.018122 -8e-5,3.305671 -1.43728,4.95845 -4.31161,4.958343 -5.03027,1.07e-4 -8.33583,-0.790352 -9.91668,-2.371381 -0.71867,1.581029 -1.65285,2.371488 -2.80254,2.371381 l -8.19205,0 c -1.72469,1.07e-4 -2.58701,-0.862212 -2.58696,-2.586962 -5e-5,-0.28733 0.0718,-0.93407 0.21558,-1.940221 0.14367,-1.149648 0.21553,-2.155688 0.21558,-3.018122 -5e-5,-1.149645 -0.0719,-2.011965 -0.21558,-2.586962 0.28739,-0.431043 0.86227,-0.862202 1.72464,-1.293481 -0.57493,-0.143601 -2.08399,-2.87428 -4.52718,-8.192046 -2.44329,-3.161712 -3.66491,-6.467271 -3.66487,-9.916687 -4e-5,-0.862183 0.14368,-2.155663 0.43116,-3.880443 0.71856,-0.862179 1.86832,-1.652639 3.44929,-2.371381 -2.58701,-2.874257 -3.88049,-5.389356 -3.88045,-7.545306 -4e-5,-3.880288 1.50902,-5.820508 4.52719,-5.820664 4.59898,1.56e-4 9.26988,1.365496 14.01271,4.096023 4.16781,2.443392 6.25175,4.527331 6.25182,6.251825 -7e-5,0.287585 -0.28751,0.790605 -0.86232,1.509061 -0.43123,0.575024 -0.64681,1.078044 -0.64674,1.509061 -7e-5,0.143863 0.0718,0.215723 0.21558,0.21558 -7e-5,0.143863 -7e-5,0.287582 0,0.43116 0.86225,-0.287297 1.43713,-0.431017 1.72464,-0.43116 1.14969,1.43e-4 2.15573,0.431302 3.01812,1.293481 2.73061,5.03034 4.31153,9.629378 4.74277,13.79713 l 0.64674,5.820664 m 1.50906,83.213938 c -0.57496,1.1498 -1.50914,2.2277 -2.80254,3.2337 1.72456,1.72468 2.58688,3.44932 2.58696,5.17393 -8e-5,0.43119 -0.1438,1.14979 -0.43116,2.1558 -3.59308,12.21622 -8.767,20.55198 -15.52177,25.0073 l -0.43116,0 c -1.14983,0 -2.15587,-1.0779 -3.01813,-3.23371 l 0,0.43116 c -6e-5,2.15581 -1.3654,4.02417 -4.09602,5.60509 -2.58701,1.58092 -5.82071,2.37138 -9.70111,2.37138 -0.86236,0 -1.29352,-0.64674 -1.29348,-1.94022 l 0,-2.80254 c -0.14376,-0.7186 -0.21562,-1.65278 -0.21558,-2.80254 -4e-5,-1.4372 0.21554,-2.80254 0.64674,-4.09603 0.71856,-0.43115 1.50902,-0.93417 2.37139,-1.50906 -1.14981,-0.43115 -1.94027,-1.29347 -2.37139,-2.58696 -0.28748,-1.29347 -0.4312,-2.37137 -0.43116,-3.2337 -4e-5,-1.58091 0.2874,-4.09601 0.86232,-7.54531 3.59296,-2.44321 5.46132,-5.89249 5.60509,-10.34785 0.28739,-2.01204 0.43111,-3.44924 0.43116,-4.3116 -5e-5,-3.01808 -0.64679,-5.6769 -1.94022,-7.97646 l 0,-0.64675 c -5e-5,-0.57483 0.21553,-1.07785 0.64674,-1.50906 0.28739,-1.43715 0.43111,-2.15575 0.43116,-2.1558 -5e-5,-0.57483 -0.35935,-0.86227 -1.0779,-0.86232 -0.28749,5e-5 -0.64679,0.0719 -1.0779,0.21558 -0.43121,0.14377 -0.71865,0.21563 -0.86232,0.21558 -0.57493,5e-5 -1.14981,-0.28739 -1.72465,-0.86232 -4.45536,-4.59898 -9.55742,-8.98244 -15.30619,-13.15039 -1.58095,-1.43713 -2.51513,-3.37735 -2.80254,-5.82066 -0.57491,0.28751 -1.07793,0.43123 -1.50906,0.43116 -1.58095,7e-5 -4.59907,-2.22759 -9.05437,-6.68299 -3.16185,-3.16176 -5.31765,-5.9643 -6.4674,-8.40762 -1e-5,-1.2934 0.50301,-2.22758 1.50906,-2.80254 -0.14373,0.1438 -0.35931,0.21566 -0.64674,0.21558 -1.58093,8e-5 -3.23371,-2.08386 -4.95834,-6.251829 -1.72465,-4.167784 -2.58697,-8.766822 -2.58697,-13.79713 0,-1.005931 0.3593,-2.01197 1.07791,-3.018122 0.86231,-1.149648 1.29347,-1.940108 1.29348,-2.371382 -1e-5,-0.574765 -0.57489,-1.293365 -1.72464,-2.155801 l 0,-1.940222 c -1e-5,-5.74868 0.93417,-11.210038 2.80254,-16.384091 1.72463,-3.592865 3.52113,-6.826564 5.3895,-9.701107 0.28743,0.143864 0.64673,0.215724 1.0779,0.21558 0.71859,1.44e-4 1.43719,-0.359156 2.1558,-1.077901 0.28743,-4.167734 5.82064,-7.617013 16.59968,-10.347847 0.57484,-0.143565 1.14972,-0.215425 1.72464,-0.215581 1.14972,1.56e-4 1.94018,0.431316 2.37138,1.293481 0.2874,1.724794 0.43112,2.946414 0.43116,3.664863 -4e-5,3.01827 -0.93422,5.748949 -2.80254,8.192046 l 2.37138,1.724641 0,7.545305 c -4e-5,1.581053 -1.00608,4.168013 -3.01812,7.760886 -0.28748,0.718726 -0.71864,2.084065 -1.29349,4.096023 l 0,1.940221 c -3e-5,3.736839 -0.50305,7.760998 -1.50906,12.072489 l 0.43116,0 c 1.14973,1.08e-4 2.51507,1.078007 4.09603,3.233702 2.58692,3.161944 4.81458,5.533323 6.68298,7.114145 4.31156,2.730777 11.06639,7.904691 20.26454,15.521771 1.29341,1.29356 1.94015,2.80262 1.94022,4.52718 -7e-5,0.1438 -7e-5,0.43124 0,0.86232 -0.14379,0.28752 -0.21565,0.57496 -0.21558,0.86233 l 1.29348,0 c 1.72457,7e-5 3.08991,0.35937 4.09602,1.0779 6.46733,8.62327 9.70103,19.47412 9.70111,32.5526 l 0,3.2337 m -41.39139,14.01271 0,2.37138 c -4e-5,6.03626 -1.72468,9.5574 -5.17392,10.56343 3.1618,2.29953 4.74272,5.24579 4.74276,8.83879 -4e-5,0.14372 -4e-5,0.50302 0,1.0779 -0.14376,0.43116 -0.21562,0.79046 -0.21558,1.0779 -1.00608,1.72464 -2.29956,2.58696 -3.88044,2.58696 -2.587,0 -6.46744,-0.79046 -11.64133,-2.37138 -0.57491,-0.7186 -0.93421,-1.50906 -1.0779,-2.37138 l 0.21558,-1.94022 c -0.57491,0.28744 -1.43723,0.43116 -2.58697,0.43116 -6.17997,0 -10.77901,-6.68298 -13.79713,-20.04896 -0.57488,-2.58693 -0.86232,-4.38343 -0.86232,-5.3895 0,-1.00601 0.79046,-2.15577 2.37139,-3.44928 -2.15581,-0.57485 -3.23371,-2.73065 -3.23371,-6.46741 l 0,-6.68298 c 0,-2.01204 0.64674,-3.30552 1.94023,-3.88045 l 7.97646,0 c 1.58091,0.86237 2.87439,2.01213 3.88044,3.44929 1.86834,-2.4432 4.31158,-3.66482 7.32973,-3.66487 l 3.88044,0 c 1.86833,5e-5 2.80251,0.93423 2.80254,2.80254 -3e-5,7.76093 -0.71863,11.92881 -2.1558,12.50365 1.14973,0.14376 2.08391,0.7905 2.80254,1.94023 0.86229,4.02419 3.08995,6.89859 6.68299,8.6232"
         style=""
         id="path3329" />
      <path
         d="m 360.67875,40.242421 -5.82066,14.65945 c -1.29356,1.437336 -2.58704,2.371516 -3.88044,2.802542 0.43108,1.149894 0.9341,1.796633 1.50906,1.940222 -0.28752,6.611249 -1.72472,12.503768 -4.31161,17.677573 -2.01215,8.335871 -4.16795,12.50375 -6.4674,12.503648 l -0.21558,0 c 0.86225,1.006142 1.29341,2.012181 1.29348,3.018123 -7e-5,0.574978 -2.37145,7.832831 -7.11414,21.773591 -1.86843,5.46144 -2.94633,8.19212 -3.23371,8.19205 -0.2875,7e-5 -0.79052,-0.79039 -1.50906,-2.37138 -1.29354,-6.75477 -3.01818,-13.07845 -5.17392,-18.97106 0.71854,-2.155705 1.07784,-3.664764 1.0779,-4.527178 -6e-5,-0.431066 -0.43122,-1.005946 -1.29348,-1.724642 -3.59305,-2.730583 -5.38955,-6.467302 -5.38951,-11.210168 -4e-5,-3.018012 0.6467,-6.323571 1.94023,-9.916687 2.01202,-5.461241 3.52108,-10.49144 4.52718,-15.090611 0.86226,-1.005907 2.01202,-1.652647 3.44928,-1.940221 -0.86238,-1.724505 -1.29354,-3.449145 -1.29348,-5.173924 -6e-5,-1.86822 0.50296,-3.736579 1.50906,-5.605084 0.14366,-3.161694 1.509,-6.036093 4.09602,-8.623206 1.58086,-0.143566 3.3055,-0.287286 5.17393,-0.43116 1.86829,-0.143566 3.01805,-0.215426 3.44928,-0.21558 1.14969,1.54e-4 2.08387,0.359454 2.80254,1.0779 0.86225,0.718753 1.29341,1.078053 1.29348,1.077901 0.14365,1.52e-4 0.43109,-0.359148 0.86232,-1.077901 1.14969,-0.718446 2.37131,-1.077746 3.66487,-1.0779 0.43108,1.54e-4 1.22154,0.07201 2.37138,0.21558 1.2934,0.143874 2.29944,0.215734 3.01812,0.21558 1.14968,1.54e-4 2.08385,-0.07171 2.80254,-0.21558 0.71851,0.718754 1.07781,1.437353 1.0779,2.155801 -9e-5,0.287592 -0.072,0.575032 -0.21558,0.862321 m -31.90586,101.322669 0,5.82067 c -6e-5,5.60512 -0.21564,11.5695 -0.64674,17.89315 -0.43122,0.57491 -1.07796,1.29351 -1.94022,2.1558 1.8683,0.86235 2.80248,2.01211 2.80254,3.44928 -6e-5,0.28746 -0.14378,1.00606 -0.43116,2.15581 -0.14378,1.14977 -0.21564,2.15581 -0.21558,3.01812 -6e-5,0.14373 0.0718,0.43117 0.21558,0.86232 -6e-5,0.28745 -6e-5,0.57489 0,0.86232 l 0,3.88044 c -6e-5,5.17393 -0.71866,8.33577 -2.1558,9.48553 l -2.37138,0 c -4.59909,0 -7.40163,-0.93418 -8.40763,-2.80254 -2.73072,1.86836 -4.88652,2.80254 -6.4674,2.80254 -4e-5,0 -0.50306,-0.0719 -1.50906,-0.21558 -1.00608,0 -2.01212,0 -3.01813,0 l -2.1558,0 c -0.86235,-1.14976 -1.29351,-2.37138 -1.29348,-3.66486 -3e-5,-0.7186 0.0718,-1.29348 0.21558,-1.72464 l 1.72464,-1.07791 c -1.43723,-1.43719 -2.15583,-3.95229 -2.1558,-7.5453 -3e-5,-1.14975 0.0718,-2.80253 0.21558,-4.95834 0.28741,-2.15578 0.43113,-3.80856 0.43116,-4.95835 -3e-5,-0.71857 -3e-5,-1.50903 0,-2.37138 -0.14375,-0.86229 -0.21561,-1.36531 -0.21558,-1.50906 -3e-5,-2.01205 0.79043,-3.73669 2.37138,-5.17392 -1.14979,-1.00601 -1.94025,-2.22763 -2.37138,-3.66487 l 0,-15.52177 c -3e-5,-0.43111 -0.28747,-1.65273 -0.86232,-3.66486 -2.73071,-9.19802 -4.09605,-14.01264 -4.09602,-14.44387 -3e-5,-0.71853 0.14369,-1.14969 0.43116,-1.29348 l 1.29348,-1.72464 c -4.16791,-2.15573 -7.76091,-10.77893 -10.77901,-25.869622 -0.28745,-0.718501 -0.43117,-1.4371 -0.43116,-2.155802 -10e-6,-1.005938 0.35929,-2.227558 1.0779,-3.664862 -1.72465,-0.862215 -3.08999,-2.083835 -4.09602,-3.664863 l -6.25183,-21.989176 c -0.14372,-0.574749 -0.21558,-1.077769 -0.21558,-1.509061 0,-0.431027 0.0719,-1.005907 0.21558,-1.724641 0.28744,-0.862186 0.43116,-1.437065 0.43116,-1.724641 0,-0.718464 -0.64674,-1.293344 -1.94022,-1.724641 -2.1558,-4.742622 -3.66486,-9.55724 -4.52718,-14.443871 0.28744,-1.149608 1.00604,-1.796347 2.1558,-1.940221 l 10.77901,0 c 0.43115,0.431314 0.93417,1.221773 1.50906,2.371381 0.57487,-1.149608 1.14975,-1.940067 1.72464,-2.371381 l 11.21017,0 c 1.00601,1.54e-4 2.22763,2.658973 3.66486,7.976466 l 0.64674,6.036244 -0.21558,3.880443 c 2.01205,0.862455 3.80855,4.455454 5.38951,10.779007 2.87436,11.354002 4.31156,17.318381 4.3116,17.893153 -4e-5,1.149867 -0.28748,2.658927 -0.86232,4.527183 1.58088,1.03e-4 3.01808,2.012183 4.3116,6.036245 1.58088,6.03633 3.23366,12.00071 4.95835,17.89315 -5e-5,1.43728 -0.35935,2.87448 -1.07791,4.31161 l 0.64674,0 c 0.86228,7e-5 1.50902,0.28751 1.94023,0.86232 1.43714,5.89259 2.80248,10.99465 4.09602,15.30619 0.28738,3.16189 0.93412,6.10815 1.94022,8.83878"
         style=""
         id="path3331" />
      <path
         d="m 439.38908,69.776902 c 2.58688,1.149881 3.88036,5.89264 3.88044,14.22829 -8e-5,3.161947 -2.51518,4.742866 -7.54531,4.742764 -1.72471,1.02e-4 -3.37749,-0.574778 -4.95834,-1.724642 -0.28751,0.143825 -0.79053,0.574984 -1.50906,1.293481 l -11.64133,0.215581 c -1.43726,-0.143618 -2.15586,-1.868257 -2.1558,-5.173924 -6e-5,-0.431052 0.0718,-1.149652 0.21558,-2.155802 -6e-5,-1.005929 -6e-5,-1.796389 0,-2.371381 0.86226,-1.437088 1.65272,-2.658707 2.37138,-3.664863 l -0.21558,0 c -1.14982,1.16e-4 -2.084,-0.934064 -2.80254,-2.802542 -0.14378,-0.431041 -1.0061,-3.16172 -2.58696,-8.192046 -2.01213,-2.299392 -3.01817,-4.598912 -3.01812,-6.898565 -5e-5,-1.724505 0.0718,-3.664725 0.21558,-5.820664 0.57483,-1.14962 1.50901,-1.94008 2.80254,-2.371382 -2.01213,-0.862177 -3.01817,-2.802397 -3.01812,-5.820664 l 0,-2.155801 c -5e-5,-4.167729 1.00599,-6.251669 3.01812,-6.251825 0.86227,1.56e-4 1.79644,0.215736 2.80254,0.646741 3.44922,1.55e-4 6.68292,1.365495 9.70111,4.096022 l 0.43116,1.293481 c 0.71853,-0.431009 1.22155,-0.646589 1.50906,-0.64674 2.01201,1.51e-4 4.02409,1.65293 6.03624,4.958344 0.28737,0.718745 1.00597,1.509205 2.1558,2.371381 3.44921,5.748942 5.60501,11.9289 6.46741,18.539893 -0.1438,1.149885 -0.8624,2.371505 -2.1558,3.664863 M 402.09371,174.54886 c -0.14376,0.71861 -0.50306,1.43721 -1.0779,2.1558 -0.4312,0.71861 -0.64678,1.07791 -0.64674,1.0779 -4e-5,0.14373 0.21554,0.28745 0.64674,0.43116 0.86228,1.58093 1.29344,3.30557 1.29348,5.17392 -4e-5,0.57489 -0.0719,1.36535 -0.21558,2.37139 -0.14376,0.86232 -0.21562,1.4372 -0.21558,1.72464 -4e-5,0.28744 0.0718,0.7186 0.21558,1.29348 -4e-5,0.7186 -4e-5,1.29348 0,1.72464 -4e-5,0.43116 -0.35934,1.00604 -1.0779,1.72464 -1.1498,0.28744 -1.94026,0.43116 -2.37138,0.43116 -4.45536,0 -7.40162,-1.4372 -8.83879,-4.3116 l -0.64674,-1.29348 c -0.43119,0.14372 -1.14979,0.21558 -2.1558,0.21558 -0.86235,0 -1.50909,-0.0719 -1.94022,-0.21558 -10.06042,-8.91064 -15.09062,-18.53987 -15.09061,-28.88774 -10e-6,-0.86229 0.35929,-1.86833 1.0779,-3.01813 -2.73069,-1.58088 -4.09603,-9.05432 -4.09603,-22.42033 0,-3.59294 0.3593,-12.07242 1.07791,-25.43846 0.28743,-0.28736 1.00603,-0.71852 2.1558,-1.29348 -1.86837,-1.86828 -2.80255,-4.1678 -2.80254,-6.898567 l 0,-8.192046 c -1e-5,-6.898458 0.14371,-11.210056 0.43116,-12.934809 0.43115,-3.305446 1.79649,-5.604965 4.09602,-6.898565 -0.43117,-0.57476 -0.93419,-1.2215 -1.50906,-1.940221 -1e-5,-1.437078 0.21557,-2.658698 0.64674,-3.664863 1.00603,-6.036113 3.30555,-11.713051 6.89856,-17.030832 5.46134,-4.024016 8.4076,-6.107956 8.83879,-6.251825 -0.43119,0.575029 -1.86839,1.940369 -4.3116,4.096023 -0.14375,-0.287295 -0.21561,-0.790315 -0.21558,-1.509061 -3e-5,-0.718453 0.0718,-1.293333 0.21558,-1.724641 7.04225,-5.030051 12.21617,-7.54515 15.52177,-7.545305 2.58692,1.55e-4 3.95226,1.006195 4.09602,3.018122 -4e-5,1.724792 -0.14376,4.024311 -0.43116,6.898565 l -2.1558,2.155801 c 0.71856,0.431304 1.58088,1.221763 2.58696,2.371382 l -0.21558,12.288069 c -1.1498,1.724768 -2.73072,5.964507 -4.74276,12.719229 -0.57492,1.581036 -0.86236,3.449395 -0.86232,5.605084 l 0,1.724641 c -1.29352,1.006149 -2.73072,1.652888 -4.31161,1.940221 2.44321,1.006147 3.66483,4.024266 3.66487,9.054367 -4e-5,0.431258 -0.0719,2.084037 -0.21558,4.958343 l -0.43117,8.623208 0.21558,3.01812 0.43117,28.67216 c -1.43724,2.29957 -2.587,3.95235 -3.44929,4.95834 1.43717,0.86237 2.65879,1.58097 3.66487,2.15581 1.58088,10.4916 3.37738,16.5997 5.3895,18.32431 0.57484,2.15583 0.86228,4.81465 0.86232,7.97647 l 0,2.58696 m 42.03813,-36.43305 0,3.88044 c -8e-5,6.75489 -0.93426,12.71927 -2.80254,17.89316 l -1.94022,1.94022 c 1.43712,0.43119 2.15572,1.29351 2.1558,2.58696 -8e-5,1.58095 -0.57496,4.09605 -1.72464,7.54531 -5.174,11.06645 -9.77304,16.59967 -13.79713,16.59967 -0.86239,0 -1.72471,-0.21558 -2.58696,-0.64674 -0.43123,2.1558 -1.58099,3.593 -3.44929,4.3116 -1.7247,0.7186 -3.73678,1.0779 -6.03624,1.0779 -2.01213,0 -3.44933,-0.43116 -4.3116,-1.29348 l 0.21558,-8.19205 3.44928,-3.88044 c -2.58701,-2.01207 -3.88049,-4.09601 -3.88044,-6.25182 -5e-5,-0.28743 0.0718,-0.79045 0.21558,-1.50906 -5e-5,-0.57487 -5e-5,-1.00603 0,-1.29349 l 0,-2.37138 c -5e-5,-0.57485 0.35925,-1.22159 1.0779,-1.94022 1.72459,-1.14973 3.08992,-3.59297 4.09602,-7.32972 1.1497,-3.73669 2.44318,-6.39551 3.88044,-7.97647 -0.57494,-0.2874 -1.29354,-1.14972 -2.1558,-2.58696 l 0,-3.88044 c -6e-5,-5.46132 0.93412,-8.192 2.80254,-8.19205 l 0.21558,0 c 1.00598,-0.14367 2.44318,-0.21553 4.31161,-0.21558 2.01201,5e-5 3.44921,0.0719 4.3116,0.21558 l 2.80254,1.50906 1.29348,1.29348 c 0.57481,-1.58087 1.79643,-2.58691 3.66486,-3.01812 0.43109,5e-5 1.00597,5e-5 1.72465,0 0.71852,0.14377 1.22154,0.21563 1.50906,0.21558 0.43108,5e-5 1.00596,-0.0718 1.72464,-0.21558 0.86224,5e-5 1.43712,5e-5 1.72464,0 0.71852,5e-5 1.22154,0.57493 1.50906,1.72464"
         style=""
         id="path3333" />
      <path
         d="m 537.71722,138.76255 c -0.57496,1.43725 -1.581,2.73073 -3.01812,3.88044 0.71852,0.71865 1.43712,1.14981 2.1558,1.29349 l 0.64674,1.50906 0,23.28265 c -8e-5,1.72466 -0.71868,3.09 -2.1558,4.09603 l 2.1558,3.01812 0,13.15039 c -0.8624,1.4372 -2.08402,2.1558 -3.66486,2.1558 l -0.64674,0 c -5.74888,0 -8.767,-0.93418 -9.05437,-2.80254 -1.00611,1.4372 -2.22773,2.22766 -3.66486,2.37138 -1.29355,0 -2.58703,0.0719 -3.88044,0.21558 -1.29355,0.14372 -2.01215,0.21558 -2.1558,0.21558 -1.72471,0 -3.09005,-0.7186 -4.09603,-2.1558 -0.2875,-8.04832 -0.43122,-14.15642 -0.43116,-18.32432 l 0,-6.89856 2.58697,-2.58696 c -1.72471,-1.72461 -2.58703,-3.66483 -2.58697,-5.82067 l 0,-14.87503 0.21558,-15.09061 c -0.14378,7e-5 -0.35936,7e-5 -0.64674,0 -0.43122,0.14379 -0.71866,0.21565 -0.86232,0.21558 -1.86842,7e-5 -3.59305,-0.79039 -5.17392,-2.37138 -1.43725,1.58099 -3.44933,2.37145 -6.03624,2.37138 -1.14981,7e-5 -2.01213,-0.0718 -2.58697,-0.21558 l -0.64674,-1.29348 0,-1.72464 c -4e-5,-0.86225 -4e-5,-1.79643 0,-2.80254 -0.14376,-1.00597 -0.21562,-1.58085 -0.21558,-1.72464 -4e-5,-2.29945 0.86228,-4.09595 2.58696,-5.38951 -1.58096,-1.2934 -2.37142,-3.0899 -2.37138,-5.3895 l 0,-6.68299 c 0.43112,-1.580825 1.65274,-2.371285 3.66487,-2.371378 0.57483,9.3e-5 1.72459,0.143813 3.44928,0.431161 l 2.37138,1.940217 c 1.29343,-1.437105 2.80248,-2.155705 4.52718,-2.155798 0.71854,9.3e-5 1.29342,0.07195 1.72464,0.215581 l 0,-19.833375 c -6e-5,-1.437087 0.7904,-3.305446 2.37139,-5.605084 -1.58099,-1.724521 -2.37145,-4.02404 -2.37139,-6.898565 l 0,-25.654038 c -6e-5,-2.011929 1.1497,-3.089828 3.44929,-3.233702 1.43713,1.54e-4 2.87433,-0.07171 4.3116,-0.21558 1.58085,-0.143566 2.37131,-0.215426 2.37138,-0.215581 2.29945,1.55e-4 3.88037,0.934335 4.74277,2.802542 l 0.64674,-0.64674 c 0.86224,-0.718448 2.012,-1.293327 3.44928,-1.724641 1.00596,-0.143566 2.29944,-0.215426 3.88044,-0.21558 1.72456,1.54e-4 2.7306,0.143874 3.01812,0.43116 l 1.50906,1.293481 c 0.14364,2.299672 0.2155,5.820811 0.21558,10.563427 -8e-5,1.581062 -0.79054,2.587102 -2.37138,3.018123 0.5748,0.575018 1.22154,1.365478 1.94022,2.371381 l 0.64674,32.983764 -1.72464,1.940221 1.72464,3.018122 c -0.1438,4.886578 -0.21566,12.360012 -0.21558,22.420332 -8e-5,10.34792 0.0718,18.25252 0.21558,23.71382 M 487.05589,118.7136 c -0.57492,15.80927 -0.86236,27.52244 -0.86232,35.13956 -0.57492,0.86236 -1.1498,1.8684 -1.72464,3.01812 0.14368,0.14376 0.50298,0.50306 1.0779,1.07791 0.57484,0.43119 1.006,0.79049 1.29348,1.0779 l 0,25.65403 c -4e-5,2.44325 -0.7905,4.38347 -2.37138,5.82067 -1.58096,0.57488 -3.37746,0.86232 -5.38951,0.86232 -1.14979,0 -2.73071,-0.14372 -4.74276,-0.43116 l -1.94022,-2.1558 c -0.86235,1.4372 -2.01211,2.22766 -3.44928,2.37138 l -8.19205,0 -1.29348,-1.0779 0.21558,-18.10873 c -10e-6,-2.01206 0.71859,-3.80856 2.1558,-5.38951 -1.58093,-2.01205 -2.44325,-3.66483 -2.58696,-4.95834 l 0.43116,-39.88233 c 0.43115,-2.01201 1.36533,-3.73665 2.80254,-5.17392 -2.15581,-2.15573 -3.23371,-3.73665 -3.2337,-4.74277 -1e-5,-4.31152 -1e-5,-9.62916 0,-15.952929 -0.14373,-6.467303 -0.21559,-10.707042 -0.21558,-12.719229 -10e-6,-9.916569 0.86231,-15.809088 2.58696,-17.677573 -1.86837,-1.149634 -2.80255,-3.377293 -2.80254,-6.682985 -10e-6,0.143853 0.0718,-2.011947 0.21558,-6.467404 0.28743,-4.45518 0.43115,-8.982359 0.43116,-13.58155 0.43115,-1.005887 1.07789,-1.580767 1.94022,-1.724641 1.86835,0.143874 3.52113,0.215734 4.95834,0.21558 4.02414,1.54e-4 6.75482,1.078053 8.19205,3.233702 2.15577,-2.443089 4.67087,-3.664708 7.5453,-3.664863 0.57485,1.55e-4 1.58089,0.143875 3.01813,0.431161 0.86228,0.575034 1.43716,1.293633 1.72464,2.155801 l -0.21558,26.516359 c -0.86236,0.575005 -1.5091,1.221745 -1.94022,1.940222 1.29344,1.006163 1.94018,1.796623 1.94022,2.371381 l 0,39.666748 -2.58696,3.44928 c 1.58088,1.14984 2.58692,2.94634 3.01812,5.38951"
         style=""
         id="path3335" />
      <path
         d="m 635.39187,91.119337 c -0.28753,3.01822 -0.57497,6.036339 -0.86232,9.054363 -0.28753,2.87449 -1.14985,4.88657 -2.58696,6.03625 l 1.94022,1.29348 c 0.86223,10.49164 1.29339,18.8274 1.29348,25.0073 -9e-5,13.94089 -1.43729,21.55805 -4.3116,22.85149 0.57479,0.71864 1.00595,2.80258 1.29348,6.25183 -1.72473,10.77902 -6.82679,19.47408 -15.30619,26.0852 -1.00611,0.43116 -1.94029,0.64674 -2.80255,0.64674 -0.71866,0 -1.22168,-0.0719 -1.50906,-0.21558 l 0,1.72464 c -5.03026,2.29952 -8.47954,3.44928 -10.34785,3.44928 -2.15585,0 -3.37747,-1.29348 -3.66486,-3.88044 -5e-5,-0.57488 -5e-5,-1.29348 0,-2.1558 -0.14377,-0.86232 -0.21563,-1.4372 -0.21558,-1.72464 -5e-5,-0.43116 0.0718,-1.00604 0.21558,-1.72465 -5e-5,-0.86231 -5e-5,-1.43719 0,-1.72464 0.14367,-0.14371 1.14971,-0.93417 3.01812,-2.37138 -2.01213,1e-5 -3.01817,-1.22161 -3.01812,-3.66486 l 0,-6.89857 c -5e-5,-1.43717 0.43111,-2.58693 1.29348,-3.44928 3.16179,-2.44321 5.60503,-9.12619 7.32973,-20.04895 0.57482,-0.57484 1.509,-1.29344 2.80254,-2.15581 -1.43726,-1.43715 -2.4433,-2.73063 -3.01812,-3.88044 l 0.64674,-20.69569 -0.43116,-9.26995 0,-11.641328 c 0.28738,-1.005946 0.4311,-2.371286 0.43116,-4.096023 -6e-5,-0.718502 -6e-5,-1.508962 0,-2.371381 -0.14378,-0.86222 -0.21564,-1.36524 -0.21558,-1.509061 -6e-5,-2.443139 0.93412,-4.311498 2.80254,-5.605084 -2.01214,-0.574774 -3.30562,-2.155693 -3.88044,-4.742764 -0.57494,-3.161727 -1.22168,-6.395427 -1.94022,-9.701107 -0.43122,-2.874278 -1.94028,-5.389377 -4.52719,-7.545305 -0.86237,1.29e-4 -1.29353,-0.431031 -1.29348,-1.293481 l 0,-12.072489 c 1.00599,-0.862177 1.72459,-1.724497 2.1558,-2.586962 -0.28749,-0.574735 -0.64679,-0.862175 -1.0779,-0.86232 l -0.43116,0 c -0.43121,-2.155654 -0.64679,-4.239593 -0.64674,-6.251825 l 0,-2.155801 c 0.43111,-1.149606 1.07785,-1.868206 1.94022,-2.155802 7.47339,0.718756 13.86893,3.305715 19.18664,7.760886 0.28736,0.575028 0.43108,1.149908 0.43116,1.724641 -8e-5,0.287587 -0.1438,0.862466 -0.43116,1.724641 l 0.64674,0 c 1.58084,1.45e-4 3.0899,0.575025 4.52718,1.724642 3.30548,5.317781 5.605,11.210299 6.89857,17.677572 0.28735,1.437325 0.43107,2.658945 0.43116,3.664863 -0.14381,0.143842 -0.71869,0.790581 -1.72465,1.940221 2.29944,1.43732 3.59292,3.808699 3.88045,7.114145 0.43107,4.167992 0.79037,8.407731 1.0779,12.719229 M 590.98236,191.36411 c -0.57493,1.00604 -1.22167,1.50906 -1.94022,1.50906 -4.88653,0 -9.34184,-1.00604 -13.36597,-3.01812 -4.02419,-2.1558 -6.03627,-4.23974 -6.03625,-6.25183 -2e-5,-0.14371 0.1437,-0.64673 0.43116,-1.50906 l -0.64674,0 c -1.72466,1e-5 -3.01814,-0.57487 -3.88044,-1.72464 -3.59302,-4.59903 -6.17998,-10.27596 -7.76089,-17.03083 -0.28745,-0.57485 -0.57489,-1.79647 -0.86232,-3.66486 l 1.72464,-1.94022 c -2.15581,-1.58089 -3.44929,-4.09599 -3.88044,-7.54531 -0.28745,-4.16784 -0.57489,-8.33572 -0.86232,-12.50365 l 0,-8.19205 c -10e-6,-2.87433 0.93417,-5.24571 2.80254,-7.11414 l -1.94022,-1.0779 c -0.57489,-10.20405 -0.86233,-18.68353 -0.86232,-25.438459 -10e-6,-13.222141 1.29347,-20.767439 3.88044,-22.635916 -0.71861,-0.862202 -1.07791,-1.868242 -1.0779,-3.018123 -10e-6,-9.772836 5.31763,-19.689513 15.95293,-29.750061 0.8623,-0.287289 1.50904,-0.431009 1.94022,-0.43116 0.57486,1.51e-4 1.29346,0.143871 2.15581,0.43116 l 0,-1.724641 c 3.01809,-2.730527 6.75481,-4.095867 11.21016,-4.096023 1.7246,1.56e-4 2.58692,1.365496 2.58697,4.096023 0.28739,1.724792 0.43111,2.946411 0.43116,3.664863 -5e-5,2.299668 -0.50307,4.455467 -1.50906,6.467404 -0.43121,0.143862 -0.64679,0.359442 -0.64674,0.646741 -5e-5,1.41e-4 0.28739,0.431301 0.86232,1.293481 0.71855,0.71874 1.07785,1.581059 1.0779,2.586961 -5e-5,5.892656 -0.64679,9.198216 -1.94022,9.916687 -2.73073,2.299648 -4.88652,8.838906 -6.46741,19.617795 -0.57491,0.574988 -1.43723,1.293587 -2.58696,2.155801 1.00601,1.149866 1.94019,2.515205 2.80254,4.096023 l -0.86232,20.911274 0,14.44387 0.64674,6.25183 c -0.14375,0.86238 -0.21561,1.94028 -0.21558,3.2337 -3e-5,0.86238 0.0718,1.79655 0.21558,2.80254 -3e-5,1.00609 -3e-5,1.65283 0,1.94022 -3e-5,2.29957 -0.93421,4.09607 -2.80254,5.38951 1.72461,1.1498 2.87437,2.15584 3.44928,3.01812 1.58088,10.34788 3.66482,16.45598 6.25183,18.32431 1.00599,0.43119 1.50901,1.22165 1.50906,2.37138 l 0,11.21017 -1.72464,2.37138 -0.64675,0.21558 c 0.43112,0.43117 1.14972,0.86233 2.15581,1.29348 0.28739,3.73673 0.43111,6.53927 0.43116,8.40763"
         style=""
         id="path3337" />
    </g>
  </g>
</svg>
