<?xml version="1.0" encoding="UTF-8" standalone="no"?>
<svg
   xmlns:dc="http://purl.org/dc/elements/1.1/"
   xmlns:cc="http://creativecommons.org/ns#"
   xmlns:rdf="http://www.w3.org/1999/02/22-rdf-syntax-ns#"
   xmlns:svg="http://www.w3.org/2000/svg"
   xmlns="http://www.w3.org/2000/svg"
   xmlns:sodipodi="http://sodipodi.sourceforge.net/DTD/sodipodi-0.dtd"
   xmlns:inkscape="http://www.inkscape.org/namespaces/inkscape"
   width="377.95276"
   height="377.95276"
   id="svg2"
   version="1.1"
   inkscape:version="0.92.4 (5da689c313, 2019-01-14)"
   sodipodi:docname="m_gente_preta.svg">
  <metadata
     id="metadata1860">
    <rdf:RDF>
      <cc:Work
         rdf:about="">
        <dc:format>image/svg+xml</dc:format>
        <dc:type
           rdf:resource="http://purl.org/dc/dcmitype/StillImage" />
        <dc:title></dc:title>
      </cc:Work>
    </rdf:RDF>
  </metadata>
  <defs
     id="defs1858" />
  <sodipodi:namedview
     pagecolor="#ffffff"
     bordercolor="#666666"
     borderopacity="1"
     objecttolerance="10"
     gridtolerance="10"
     guidetolerance="10"
     inkscape:pageopacity="0"
     inkscape:pageshadow="2"
     inkscape:window-width="1920"
     inkscape:window-height="1017"
     id="namedview1856"
     showgrid="false"
     inkscape:zoom="1.2464292"
     inkscape:cx="201.76349"
     inkscape:cy="155.75779"
     inkscape:window-x="-8"
     inkscape:window-y="-8"
     inkscape:window-maximized="1"
     inkscape:current-layer="svg2"
     fit-margin-top="0"
     fit-margin-left="0"
     fit-margin-right="0"
     fit-margin-bottom="0" />
  <path
     inkscape:connector-curvature="0"
     style="fill:#ffffff;stroke:none;stroke-width:0.99999982"
     d="m 371.73539,234.66699 c 1.23009,-0.35976 1.37302,-3.18795 1.60258,-4.3344 0.92256,-4.60746 1.99888,-9.19976 2.54029,-13.87007 1.65022,-14.22549 2.86081,-28.79882 1.45964,-43.12725 -0.46994,-4.78344 -1.39683,-9.36598 -2.08118,-14.08679 C 369.77766,121.44517 351.93929,85.428712 325.38638,57.823586 316.66535,48.757111 306.77271,40.661757 296.58771,33.33836 293.32193,30.99085 289.76595,29.324924 286.41354,27.17268 273.30492,18.754847 258.56558,12.129287 243.52955,7.850587 201.10467,-4.2215761 154.30044,-2.855049 113.59118,15.329373 79.38491,30.609206 50.398261,55.520071 29.866268,86.851044 18.607543,104.03108 10.11174,123.4041 5.4105701,143.42793 c -1.4410164,6.13729 -2.1788497,12.25876 -3.1934518,18.42119 -2.34148917,14.22376 -2.93357496,28.95464 -1.26928116,43.34397 0.32419616,2.80219 0.13946716,5.62821 0.51932026,8.45207 1.7115048,12.71929 4.4772427,25.42124 8.7539476,37.49254 13.903404,39.24363 40.768593,74.05534 75.866459,96.72641 32.620806,21.0695 70.348406,30.73954 108.931666,30.05471 5.71945,-0.10186 11.48655,-1.11611 17.11288,-1.71642 56.24815,-6.00098 106.83099,-39.15261 137.0893,-86.92201 7.54509,-11.91309 13.66735,-24.79058 18.18271,-38.14269 1.76283,-5.21645 4.33127,-10.90534 4.33127,-16.47071 z"
     id="path24" />
  <path
     inkscape:connector-curvature="0"
     style="fill:#010101;stroke:none;stroke-width:0.99999982"
     d="m 115.97339,345.41084 c 0.0479,-5.79726 1.03864,-11.35396 1.29093,-17.12087 0.45089,-10.3072 0.58256,-20.76176 2.00279,-30.99094 0.77768,-5.60004 1.33576,-11.47532 1.47393,-17.12087 0.0379,-1.55171 0.80129,-3.87062 0.31532,-5.34865 -0.45219,-1.374 -2.74278,-2.6093 -3.78359,-3.55203 -3.29805,-2.99507 -6.66107,-5.91862 -9.96194,-8.90719 -5.63499,-5.10159 -12.166129,-10.84466 -16.202448,-17.35709 -1.606688,-2.59197 -2.129906,-5.96413 -2.978404,-8.82917 -0.61634,-2.08051 -1.721033,-4.13718 -2.042414,-6.28488 h -0.649692 c -0.08446,-2.92138 -1.490176,-5.47868 -2.223029,-8.23535 -1.749186,-6.57745 -3.813041,-13.49081 -5.083188,-20.17445 -1.08845,-5.72726 -1.73641,-12.13046 -1.336849,-17.96825 0.150295,-2.19883 0.884447,-4.31077 1.063329,-6.50159 1.426506,0.32356 2.128173,1.31592 3.256905,2.13924 2.29601,1.67481 4.428949,3.57263 6.705035,5.3118 7.927107,6.05776 15.575715,12.51752 23.605465,18.49683 2.06018,1.53437 4.04195,3.19445 6.06379,4.78084 0.76404,0.60031 1.83278,1.7901 2.81533,1.96131 0.90633,0.15821 1.90642,-0.94273 2.59877,-1.40651 l 6.28036,-4.19353 c 8.02824,-5.38115 16.14852,-11.72151 24.90485,-15.95621 1.94518,-0.94079 4.58899,-0.98521 6.71348,-1.20128 3.46676,-0.35239 6.93806,-0.86732 10.39507,-1.30357 6.27949,-0.79233 12.55594,-2.04345 18.84107,-2.74953 5.66964,-0.63715 11.50387,-0.72037 17.10855,-1.76171 v 0.21672 c -2.77635,0.81573 -5.4076,2.99745 -7.7963,4.58709 -4.84237,3.22132 -9.64186,6.53562 -13.87938,10.52261 -13.96296,13.13323 -27.39403,26.42032 -33.91434,44.9217 -2.24988,6.38456 -3.74851,13.14622 -3.74851,19.93822 0,1.40868 -0.67351,5.29664 0.34716,6.34339 0.93512,0.96007 3.37081,1.34367 4.63381,1.71859 3.98846,1.18546 8.62834,1.47803 12.77728,1.01208 2.07316,-0.23189 3.94341,-0.8387 6.06379,-0.8387 l -7.92581,38.79285 -4.52943,20.15495 -2.48767,11.70287 2.19877,-4.98456 5.17934,-14.30351 15.95751,-41.39349 5.04291,-13.43663 1.50729,-4.11768 c -6.33905,-0.85387 -12.86455,-2.1932 -19.27419,-2.38175 -1.79272,-0.052 -6.58463,-0.50062 -7.57368,-2.21054 -1.22163,-2.11085 0.6419,-6.5081 0.64363,-8.84434 h 0.64969 c 1.04904,-7.14092 4.94113,-14.25366 8.56597,-20.37167 10.10249,-17.05151 25.5905,-30.46431 41.89344,-41.3937 6.68532,-4.4809 13.82327,-9.4375 21.43983,-12.17706 4.85969,-1.74763 10.30627,-2.55079 15.37387,-3.48919 2.43634,-0.45164 4.84453,-1.36013 7.36534,-1.64317 4.0021,-0.44969 8.18395,-0.35607 12.12758,-1.32828 v -0.21672 c -4.12555,-0.4109 -8.47415,-0.82938 -12.56071,-1.64707 -1.44881,-0.28997 -3.22247,-0.33981 -4.53918,-1.03895 -2.22195,-1.17982 -4.79689,-4.92561 -4.929,-7.49981 -0.0996,-1.93206 1.13697,-4.08799 1.79749,-5.85143 1.72601,-4.62286 4.36159,-9.14407 5.72161,-13.87008 -2.28258,1.06562 -3.99127,3.70093 -5.84722,5.38116 -5.03511,4.55827 -10.79788,9.6618 -17.54168,11.35829 -2.08118,0.52359 -4.2165,-0.007 -6.28035,-0.23103 -3.98261,-0.43322 -7.98472,-1.27041 -11.91102,-2.07011 -1.53977,-0.31381 -2.96476,-1.06062 -4.54784,-1.21839 v -0.65016 c -5.03511,-0.8671 -10.38857,-3.73604 -14.94291,-6.01463 -1.26041,-0.63065 -4.01597,-1.28732 -4.76702,-2.47841 -0.58342,-0.92539 -0.53448,-2.37395 -0.74433,-3.42656 -0.57476,-2.88172 -0.82467,-5.7836 -1.37604,-8.66879 -0.53275,-2.7868 -0.69236,-5.61456 -0.69236,-8.45208 0,-1.14514 -0.21721,-2.53215 0.69907,-3.40185 1.3284,-1.26044 4.29036,-1.61954 6.01442,-2.13946 5.37295,-1.61954 10.80437,-3.11491 16.2423,-4.53139 15.08151,-3.9287 30.05041,-8.49759 45.04529,-12.77542 4.39842,-1.255241 8.79033,-2.526953 13.2104,-3.718046 2.29558,-0.618518 4.72976,-1.425583 7.14661,-1.111339 3.88083,0.504524 8.64307,1.505986 11.43241,4.50864 2.20895,2.378715 2.96476,7.522345 3.98911,10.599115 2.63125,7.92068 5.57869,15.74145 8.29223,23.62247 4.69294,13.62236 9.47251,27.13744 13.50709,40.96005 0.82728,2.8295 1.4813,5.94376 2.57928,8.6688 0.79696,1.98363 2.3129,4.69653 1.66971,6.93503 -0.61721,2.14856 -3.33292,4.30471 -4.87052,5.85144 -3.85701,3.87928 -7.61223,7.83442 -11.47789,11.70287 -9.79952,9.80657 -19.82643,19.35742 -29.72124,29.03179 -3.25279,3.18145 -6.15474,6.79417 -9.53964,9.86726 -3.84834,3.49352 -7.28088,7.51367 -11.21801,10.90751 -1.79748,1.54954 -3.31343,3.09042 -4.96581,4.80684 -0.80345,0.83437 -2.05086,1.69909 -2.4645,2.81736 -0.79262,2.1542 0.6302,4.79818 0.72766,6.93504 0.30319,6.60345 0.83593,13.2069 1.90143,19.7215 0.4288,2.61798 0.27287,5.37466 0.52625,8.01864 0.61504,6.43875 1.61773,12.84282 2.30857,19.28807 0.38115,3.57587 0.2837,7.24928 0.71466,10.81648 0.52842,4.37991 0.7818,8.82917 1.31021,13.23942 0.34434,2.8607 1.04384,5.55236 1.04384,8.45207 4.76008,-0.88638 9.26461,-3.26813 13.64353,-5.2988 10.30844,-4.78084 19.56872,-10.77314 28.70555,-17.40043 48.21363,-34.96342 74.91379,-94.35983 69.41957,-153.49401 -0.84677,-9.12022 -1.68271,-17.89846 -3.86567,-26.87326 C 342.70283,90.268283 298.74685,43.357535 242.87986,24.742383 223.10324,18.152366 201.55729,15.525721 180.726,16.438545 116.7829,19.240949 56.053179,59.934437 30.709568,119.37203 24.82401,133.17491 20.549255,147.91663 18.156873,162.716 c -1.918106,11.86498 -1.685517,24.02166 -1.161649,35.97549 1.99607,45.55018 22.989561,89.62017 57.53324,119.56002 9.865787,8.55176 20.407686,17.10136 32.329966,22.7014 2.95783,1.38917 5.83185,3.87278 9.11496,4.45793 z"
     id="path182" />
  <path
     inkscape:connector-curvature="0"
     style="fill:#ffffff;stroke:none;stroke-width:0.99999982"
     d="m 264.75281,89.247966 c -0.29669,-3.38148 -2.89979,-7.309744 -4.2793,-10.402554 -3.36974,-7.552036 -6.33666,-15.296087 -10.16551,-22.538865 -1.1911,-2.250636 -2.3887,-4.535296 -3.43904,-6.851598 -0.43529,-0.958552 -0.56956,-2.29463 -1.67187,-2.770114 -2.10717,-0.908489 -5.50506,0.89462 -7.51693,1.503386 -5.78659,1.74958 -11.7356,3.318848 -17.53952,4.991058 -5.39677,1.554749 -10.36042,3.446713 -15.5926,5.432084 -1.64372,0.623719 -5.11091,1.383323 -6.05729,2.967111 -0.84244,1.407162 0.65185,3.853496 1.22575,5.130626 1.96207,4.350218 4.38975,8.502137 6.38863,12.794924 2.33456,5.014248 5.73462,9.571433 7.80497,14.728499 0.73199,1.82218 1.6134,3.471635 2.54896,5.201276 0.3465,0.640411 0.71249,1.775801 1.38384,2.141621 0.9074,0.49413 2.89113,-0.4265 3.81369,-0.68743 3.25496,-0.92041 6.55539,-1.607845 9.74538,-2.746925 4.57599,-1.634068 9.54397,-2.313268 14.29322,-3.565475 6.3843,-1.68283 12.71663,-3.73495 19.05762,-5.327624 z"
     id="path292" />
  <path
     inkscape:connector-curvature="0"
     style="fill:#ffffff;stroke:none;stroke-width:0.99999982"
     d="m 177.69411,136.27618 h 0.21656 c -0.21396,-4.98976 -1.29743,-9.93748 -1.29938,-14.95367 -6.5e-4,-1.83411 -0.24061,-4.17966 0.68001,-5.85057 1.31606,-2.38891 5.792,-3.10733 8.19911,-3.86044 7.65987,-2.39627 15.69223,-5.63449 23.60547,-6.97642 l 0.64969,-0.65016 c -1.58308,-4.328983 -4.21216,-8.430406 -6.2457,-12.569756 -2.53163,-5.152298 -4.68428,-10.578746 -7.11846,-15.820549 -1.11097,-2.394755 -2.22194,-4.791026 -3.40655,-7.151756 -0.44828,-0.897653 -0.95721,-2.301565 -1.87544,-2.81129 -0.86192,-0.47765 -2.27436,-0.223221 -3.22681,-0.222788 -3.15447,0.0013 -6.16254,0.559788 -9.11496,1.588557 -8.69049,3.02801 -16.69383,6.010725 -24.23588,11.561788 -2.17582,1.601559 -4.47075,3.051415 -6.49692,4.84824 -0.69972,0.620468 -1.93219,1.352331 -2.03094,2.373299 -0.14964,1.545862 1.07697,3.699624 1.81437,4.98434 1.88996,3.292841 3.81651,6.590017 5.91935,9.752395 7.92277,11.91439 16.03482,23.77352 23.96648,35.75878 z"
     id="path344" />
  <path
     inkscape:connector-curvature="0"
     style="fill:#ffffff;stroke:none;stroke-width:0.99999982"
     d="m 190.47138,174.63559 c -0.50675,-2.36745 -2.22606,-3.84526 -3.28311,-5.86314 -2.505,-4.78257 -5.05417,-9.45007 -7.80713,-14.11193 -8.72146,-14.76859 -17.37449,-29.53025 -26.65859,-43.95729 -3.08712,-4.79753 -6.22556,-9.55344 -9.38999,-14.303509 -1.11054,-1.667226 -2.61176,-4.898519 -4.41206,-5.845368 -2.8868,-1.518339 -7.50307,1.39936 -10.16984,2.366147 -7.68564,2.786368 -14.73501,7.83659 -20.6353,13.46567 -2.2371,2.13448 -4.90452,4.71474 -6.21192,7.56786 -1.33338,2.90925 -0.0786,4.15604 1.11726,6.72677 1.69721,3.64934 3.8531,6.96667 5.98106,10.3941 8.08541,13.02378 18.2087,24.40005 27.27449,36.62566 2.67067,3.60166 5.32661,7.25556 8.7167,10.24781 0.9466,0.83546 2.02076,2.56726 3.26774,2.90318 3.64953,0.98282 8.08649,-0.47028 11.67517,-0.96939 7.01364,-0.97524 14,-1.93964 21.00671,-3.21244 3.16551,-0.57517 6.32215,-1.75434 9.52881,-2.03413 z"
     id="path414" />
  <path
     inkscape:connector-curvature="0"
     style="fill:#ffffff;stroke:none;stroke-width:0.99999982"
     d="m 92.801046,125.119 c -4.702686,1.00363 -8.808305,4.78518 -12.344144,7.81514 -3.951209,3.38625 -7.314663,7.19661 -10.42777,11.35742 -1.837328,2.45565 -3.602757,5.01143 -3.423009,8.2386 0.22436,4.02514 5.201215,7.59083 7.786772,10.18584 7.705561,7.733 15.753294,14.65741 24.022571,21.73613 5.275934,4.51601 10.572004,8.94186 16.041974,13.20127 2.12882,1.65574 4.44822,4.18053 7.36317,3.52387 5.84052,-1.31332 11.79061,-6.08549 16.25074,-9.87484 1.32343,-1.12434 4.15673,-3.21525 4.02744,-5.18069 -0.0877,-1.33282 -0.99619,-2.02676 -1.67967,-3.04253 -1.83862,-2.73283 -3.96572,-5.19 -5.91977,-7.81275 -7.52906,-10.10651 -14.8695,-20.40526 -22.45162,-30.53821 -3.80957,-5.0914 -7.62478,-10.13664 -11.52596,-15.17039 -2.12926,-2.74692 -3.920027,-5.25004 -7.720724,-4.43886 z"
     id="path546" />
</svg>
