<?xml version="1.0" encoding="UTF-8" standalone="no"?>
<!-- Created with Inkscape (http://www.inkscape.org/) -->

<svg
   xmlns:dc="http://purl.org/dc/elements/1.1/"
   xmlns:cc="http://creativecommons.org/ns#"
   xmlns:rdf="http://www.w3.org/1999/02/22-rdf-syntax-ns#"
   xmlns:svg="http://www.w3.org/2000/svg"
   xmlns="http://www.w3.org/2000/svg"
   xmlns:sodipodi="http://sodipodi.sourceforge.net/DTD/sodipodi-0.dtd"
   xmlns:inkscape="http://www.inkscape.org/namespaces/inkscape"
   width="115.69433mm"
   height="102.53571mm"
   viewBox="0 0 115.69433 102.53571"
   version="1.1"
   id="svg859"
   inkscape:version="0.92.4 (5da689c313, 2019-01-14)"
   sodipodi:docname="m_tranquilo.svg">
  <defs
     id="defs853" />
  <sodipodi:namedview
     id="base"
     pagecolor="#ffffff"
     bordercolor="#666666"
     borderopacity="1.0"
     inkscape:pageopacity="0.0"
     inkscape:pageshadow="2"
     inkscape:zoom="0.98994949"
     inkscape:cx="-84.562638"
     inkscape:cy="79.766763"
     inkscape:document-units="mm"
     inkscape:current-layer="layer1"
     showgrid="false"
     fit-margin-top="0"
     fit-margin-left="0"
     fit-margin-right="0"
     fit-margin-bottom="0"
     inkscape:window-width="1920"
     inkscape:window-height="1017"
     inkscape:window-x="-8"
     inkscape:window-y="-8"
     inkscape:window-maximized="1" />
  <metadata
     id="metadata856">
    <rdf:RDF>
      <cc:Work
         rdf:about="">
        <dc:format>image/svg+xml</dc:format>
        <dc:type
           rdf:resource="http://purl.org/dc/dcmitype/StillImage" />
        <dc:title></dc:title>
      </cc:Work>
    </rdf:RDF>
  </metadata>
  <g
     inkscape:label="Layer 1"
     inkscape:groupmode="layer"
     id="layer1"
     transform="translate(-78.773762,-58.527404)">
    <path
       style="fill:#00a8ff;fill-opacity:1;stroke:none;stroke-width:0.99999994px;stroke-linecap:butt;stroke-linejoin:miter;stroke-opacity:1"
       d="m 510.70703,224.99219 c -7.20767,0.16433 -14.95245,3.47257 -22.55078,12.1289 -19.9505,22.72843 -9.5957,35.85938 -9.5957,35.85938 l -4.54688,2.02148 c 0,0 -1.51445,17.67677 0.50586,18.93946 2.02031,1.26269 6.56483,2.52695 8.08008,1.01171 1.51521,-1.51522 5.80959,26.76739 2.02148,28.53516 l -8.08203,7.57617 c 0,0 -38.13266,-2.27261 -47.47656,8.33399 -9.3439,10.60661 -18.94141,67.42773 -18.94141,67.42773 0,0 -7.57482,26.26471 -19.94921,35.10352 -12.37436,8.83884 -41.16407,38.63867 -41.16407,38.63867 l -23.73828,-8.33398 -11.61719,3.7871 -5.30273,1.76758 c 0,0 -10.32423,10.81157 -10.60742,17.67774 -0.27462,6.65839 3.35396,14.14816 8.83984,17.93164 1.46164,1.00805 3.97199,-0.67154 5.30274,0.5039 1.16362,1.02781 -0.14013,3.50373 1.00976,4.54688 2.57501,2.33598 7.32839,-0.45177 10.35352,1.26172 1.67037,0.94612 1.68258,4.04895 3.53711,4.54492 2.37079,0.63404 4.37332,-2.98805 6.81836,-2.77734 2.37371,0.20456 3.68428,3.96146 6.06054,3.78906 10.90084,-0.79087 25.00196,-21.21289 25.00196,-21.21289 l 10.0996,3.28125 c 0,0 -8.33236,11.11198 10.35547,33.58789 7.31925,8.80287 9.95163,12.02299 11.19922,13.58398 l 10.01367,5.86133 c 0,0 -19.44584,14.14188 -4.04101,36.36524 15.40482,22.22334 82.32812,-10.60547 82.32812,-10.60547 0,0 16.13407,-11.56593 28.78967,-9.84873 10.78942,1.46398 21.67689,-0.43052 23.99057,9.59543 0,0 27.77857,7.82988 33.58695,16.92127 5.80838,9.09134 82.07617,5.05078 82.07617,5.05078 l 24.74805,-7.32422 c 0,0 5.5564,-11.86977 -2.77734,-19.19336 -8.33375,-7.32363 -20.96231,-16.92052 -26.26563,-16.66797 -5.30328,0.25247 -30.05078,5.05078 -30.05078,5.05078 l -1.76758,-5.30273 c 0,0 31.31411,-10.10043 37.375,-20.70704 6.06093,-10.60659 13.1318,-30.05274 -0.75781,-35.10351 -13.88958,-5.05077 8.58594,-0.25195 8.58594,-0.25195 l 15.6582,8.33398 7.57617,-0.75781 c 0,0 5.18689,2.19164 7.82813,1.76758 2.42365,-0.38913 3.97903,-3.03323 6.31445,-3.78907 2.81311,-0.91044 6.70691,1.29193 8.83789,-0.75781 1.46731,-1.41137 0.75781,-6.06055 0.75781,-6.06055 0,0 13.14727,-8.10805 14.39453,-14.90039 1.50521,-8.19706 -9.8496,-22.98047 -9.8496,-22.98047 0,0 -7.5754,-4.54569 -9.59571,-2.52539 -2.02031,2.02031 -12.12109,8.58594 -12.12109,8.58594 l -8.58594,0.25391 -9.3457,9.08984 c 0,0 -37.12265,-41.41583 -40.65821,-43.18359 -3.53552,-1.76776 -15.90975,-20.96043 -19.44531,-46.4668 -3.53552,-25.50635 -18.18164,-55.81055 -18.18164,-55.81055 0,0 -38.63852,-12.3744 -47.98242,-10.10156 -9.3439,2.27284 -12.88086,-15.15234 -12.88086,-15.15234 0,0 3.03086,-18.94043 4.04102,-17.67774 1.01015,1.26269 5.05078,-1.76757 5.05078,-1.76757 0,0 4.54686,-18.43458 -0.50391,-19.69727 -5.05073,-1.26269 4.79758,-23.99184 -4.79883,-35.10352 -5.69791,-6.59755 -15.40309,-14.2643 -26.52344,-14.64648 -0.47554,-0.0163 -0.95308,-0.0188 -1.43359,-0.008 z m -114.38672,329.51562 -0.33984,-0.19922 c 0,0 2.27765,2.62382 0.33984,0.19922 z m 48.9043,-126.21484 -0.50586,28.53711 -19.31836,37.50195 -14.77344,-6.1875 c 0,0 22.72784,-24.24349 22.60157,-31.69336 -0.12624,-7.44986 11.99609,-28.1582 11.99609,-28.1582 z M 578.75,431.62695 c 5.1786,14.28571 43.75,62.32227 43.75,62.32227 l -21.60742,8.57031 c 0,0 -6.96429,-21.96399 -10,-23.39258 -3.03572,-1.42854 -12.14258,-47.5 -12.14258,-47.5 z"
       transform="scale(0.26458333)"
       id="path1461"
       inkscape:connector-curvature="0"
       sodipodi:nodetypes="csccscccsccccccssssssssccsccscscccccccccscccssscsccccccccscccccccccccccccccccccc" />
  </g>
</svg>
