<?xml version="1.0" encoding="UTF-8" standalone="no"?>
<!-- Created with Inkscape (http://www.inkscape.org/) -->

<svg
   xmlns:dc="http://purl.org/dc/elements/1.1/"
   xmlns:cc="http://creativecommons.org/ns#"
   xmlns:rdf="http://www.w3.org/1999/02/22-rdf-syntax-ns#"
   xmlns:svg="http://www.w3.org/2000/svg"
   xmlns="http://www.w3.org/2000/svg"
   xmlns:xlink="http://www.w3.org/1999/xlink"
   xmlns:sodipodi="http://sodipodi.sourceforge.net/DTD/sodipodi-0.dtd"
   xmlns:inkscape="http://www.inkscape.org/namespaces/inkscape"
   width="400"
   height="400"
   id="svg2"
   version="1.1"
   inkscape:version="0.92.4 (5da689c313, 2019-01-14)"
   sodipodi:docname="m_grudar_cadeira2.svg">
  <defs
     id="defs4">
    <linearGradient
       id="linearGradient4488-6-79"
       inkscape:collect="always">
      <stop
         id="stop4490-7-20"
         offset="0"
         style="stop-color:#55a11e;stop-opacity:1" />
      <stop
         id="stop4492-5-2"
         offset="1"
         style="stop-color:#417d22;stop-opacity:1" />
    </linearGradient>
    <linearGradient
       y2="-231.175"
       x2="-360.80801"
       y1="-95.6194"
       x1="-360.146"
       gradientTransform="translate(196.841,-371.918)"
       gradientUnits="userSpaceOnUse"
       id="linearGradient4680"
       xlink:href="#linearGradient4488-6-79"
       inkscape:collect="always" />
    <linearGradient
       id="linearGradient4488-6-62"
       inkscape:collect="always">
      <stop
         id="stop4490-7-6"
         offset="0"
         style="stop-color:#55a11e;stop-opacity:1" />
      <stop
         id="stop4492-5-1"
         offset="1"
         style="stop-color:#417d22;stop-opacity:1" />
    </linearGradient>
    <linearGradient
       inkscape:collect="always"
       xlink:href="#linearGradient4488-6-62"
       id="linearGradient4557-0"
       gradientUnits="userSpaceOnUse"
       gradientTransform="translate(196.841,-371.918)"
       x1="-360.146"
       y1="-95.6194"
       x2="-360.80801"
       y2="-231.175" />
    <linearGradient
       id="linearGradient4488-6-7"
       inkscape:collect="always">
      <stop
         id="stop4490-7-0"
         offset="0"
         style="stop-color:#55a11e;stop-opacity:1" />
      <stop
         id="stop4492-5-93"
         offset="1"
         style="stop-color:#417d22;stop-opacity:1" />
    </linearGradient>
    <linearGradient
       inkscape:collect="always"
       xlink:href="#linearGradient4488-6-7"
       id="linearGradient4557-2"
       gradientUnits="userSpaceOnUse"
       gradientTransform="translate(196.841,-371.918)"
       x1="-360.146"
       y1="-95.6194"
       x2="-360.80801"
       y2="-231.175" />
    <linearGradient
       id="linearGradient4488-6-6"
       inkscape:collect="always">
      <stop
         id="stop4490-7-2"
         offset="0"
         style="stop-color:#55a11e;stop-opacity:1" />
      <stop
         id="stop4492-5-9"
         offset="1"
         style="stop-color:#417d22;stop-opacity:1" />
    </linearGradient>
    <linearGradient
       inkscape:collect="always"
       xlink:href="#linearGradient4488-6-6"
       id="linearGradient4557-5"
       gradientUnits="userSpaceOnUse"
       gradientTransform="translate(196.841,-371.918)"
       x1="-360.146"
       y1="-95.6194"
       x2="-360.80801"
       y2="-231.175" />
    <linearGradient
       id="linearGradient4488-6"
       inkscape:collect="always">
      <stop
         id="stop4490-7"
         offset="0"
         style="stop-color:#55a11e;stop-opacity:1" />
      <stop
         id="stop4492-5"
         offset="1"
         style="stop-color:#417d22;stop-opacity:1" />
    </linearGradient>
    <linearGradient
       inkscape:collect="always"
       xlink:href="#linearGradient4488-6"
       id="linearGradient4557"
       gradientUnits="userSpaceOnUse"
       gradientTransform="translate(196.841,-371.918)"
       x1="-360.146"
       y1="-95.6194"
       x2="-360.80801"
       y2="-231.175" />
  </defs>
  <sodipodi:namedview
     id="base"
     pagecolor="#ffffff"
     bordercolor="#666666"
     borderopacity="1.0"
     inkscape:pageopacity="0.0"
     inkscape:pageshadow="2"
     inkscape:zoom="2.4060158"
     inkscape:cx="245.25782"
     inkscape:cy="230.2573"
     inkscape:document-units="px"
     inkscape:current-layer="layer1"
     showgrid="false"
     inkscape:window-width="1920"
     inkscape:window-height="1017"
     inkscape:window-x="-8"
     inkscape:window-y="-8"
     inkscape:window-maximized="1"
     fit-margin-top="0"
     fit-margin-left="0"
     fit-margin-right="0"
     fit-margin-bottom="0"
     showguides="true"
     inkscape:guide-bbox="true">
    <sodipodi:guide
       position="524.00795,207.48716"
       orientation="0,1"
       id="guide1041"
       inkscape:locked="false" />
    <sodipodi:guide
       position="451.78424,249.37493"
       orientation="0,1"
       id="guide1043"
       inkscape:locked="false" />
    <sodipodi:guide
       position="591.84982,172.89995"
       orientation="0,1"
       id="guide1046"
       inkscape:locked="false" />
  </sodipodi:namedview>
  <metadata
     id="metadata7">
    <rdf:RDF>
      <cc:Work
         rdf:about="">
        <dc:format>image/svg+xml</dc:format>
        <dc:type
           rdf:resource="http://purl.org/dc/dcmitype/StillImage" />
        <dc:title></dc:title>
      </cc:Work>
    </rdf:RDF>
  </metadata>
  <g
     inkscape:label="Layer 1"
     inkscape:groupmode="layer"
     id="layer1"
     transform="translate(-156.25437,-337.2358)">
    <ellipse
       style="opacity:1;fill:#000000;fill-opacity:1;stroke:none;stroke-width:22.67716599;stroke-miterlimit:4;stroke-dasharray:none;stroke-opacity:1;paint-order:markers fill stroke"
       id="path966"
       cx="354.08414"
       cy="536.95105"
       rx="198.37653"
       ry="193.34727" />
    <path
       inkscape:connector-curvature="0"
       style="opacity:1;fill:#ffffff;fill-opacity:1;stroke:none;stroke-width:22.67716599;stroke-miterlimit:4;stroke-dasharray:none;stroke-opacity:1;paint-order:markers fill stroke"
       d="m 353.83915,362.40017 c -22.33449,0.0963 -44.70002,8.61154 -62.20117,25.52929 -1.08251,1.11132 -1.97327,2.21033 -2.68555,3.30274 -9.79989,6.22485 -17.13517,17.4961 -19.85156,30.5039 -1.15901,5.62854 -1.07156,8.84817 -1.72852,14.44922 -0.0825,0.70384 -0.53125,4.05469 -0.53125,4.05469 -0.86504,24.99567 6.64005,47.96577 26.21289,66.62109 6.81516,6.49567 12.38868,13.04591 12.38868,14.56446 0,1.51853 -5.28464,31.80295 -11.74414,67.28906 -6.45951,35.48611 -13.42188,100.4659 -13.42188,102.03906 33.69938,4.76318 112.70313,3.91797 112.70313,3.91797 h 42.89062 l -15.1582,-89.26758 -15.17188,-89.26953 10.63672,-10.2832 c 33.76024,-32.63488 33.60116,-85.63424 -0.35351,-118.45703 -17.34574,-16.76754 -39.64988,-25.09044 -61.98438,-24.99414 z"
       id="rect940" />
    <path
       style="fill:#a01319;stroke-width:2.29144907"
       d="m 275.20725,412.3565 v 22.71487 23.57983 H 432.96102 V 435.07137 412.3565 Z m 145.94549,6.93819 c 2.76367,0 3.1052,0.69868 2.34069,4.76786 -1.29411,6.88787 -4.41543,13.45966 -8.28807,17.44897 -2.27554,2.344 -2.91515,2.48736 -2.36691,0.52684 0.22245,-0.79532 0.40367,-3.83314 0.40367,-6.74943 0,-5.14257 -0.0629,-5.42256 -2.07595,-9.33389 -1.29688,-2.51993 -1.88911,-4.21547 -1.57793,-4.51888 0.66728,-0.65065 8.71723,-2.14147 11.5645,-2.14147 z m -134.47272,0.005 c 2.22104,0.004 7.84966,0.85052 10.73622,1.61462 l 1.96324,0.51898 -2.1808,4.16762 c -1.88438,3.59941 -2.21169,4.72373 -2.41146,8.26447 -0.12709,2.25394 -0.004,5.33852 0.27521,6.85692 0.27944,1.51838 0.35354,2.76269 0.16252,2.76269 -0.19104,0 -1.20921,-0.88917 -2.26206,-1.97373 -3.87264,-3.98934 -6.99395,-10.56111 -8.28806,-17.44897 -0.73902,-3.93347 -0.38812,-4.76666 2.00519,-4.7626 z m 14.08342,6.13871 c 0.73859,-0.0495 1.66339,0.20179 2.94355,0.68413 1.53401,0.57795 3.58299,1.53891 4.55292,2.13361 1.64302,1.00735 1.73578,1.21397 1.37872,3.02741 -0.80367,4.08222 -0.50973,8.68365 0.78635,12.33249 1.8103,5.09659 2.60786,4.82248 4.5975,-1.57793 1.11876,-3.59897 1.80895,-5.06831 2.31708,-4.93036 0.39817,0.10803 1.53083,0.38795 2.5163,0.62121 2.31811,0.54875 4.64869,2.79555 3.89241,3.75347 -0.29847,0.37811 -0.69972,1.34294 -0.89118,2.14412 -0.50888,2.1295 -2.36505,4.00868 -4.50051,4.56077 -5.62052,1.45307 -12.14901,0.88397 -15.35729,-1.33938 -3.06042,-2.12086 -3.82812,-3.21386 -3.69058,-5.25541 0.0815,-1.20993 -0.27397,-2.399 -1.04061,-3.47563 -1.73541,-2.43712 -1.93402,-6.55386 -0.46132,-9.59602 1.00695,-2.08001 1.72565,-2.99998 2.95666,-3.08248 z m 91.72444,6.47687 c 0.43408,0 0.51274,0.59735 0.2595,1.9711 -0.19997,1.08457 -0.39324,2.80151 -0.4299,3.81377 -0.0895,2.48459 2.19572,9.46497 3.09821,9.46497 0.97381,0 2.011,-2.20689 3.09033,-6.57385 1.12475,-4.55073 1.25313,-4.76186 2.1572,-3.58048 0.60445,0.78988 0.80994,0.8273 1.21098,0.21755 0.75808,-1.15254 4.22235,-0.34651 5.91592,1.37611 1.39627,1.42028 1.41932,1.53418 0.77586,4.01822 -0.38125,1.47172 -1.09255,2.79434 -1.67491,3.11655 -0.55651,0.3079 -1.24677,0.85718 -1.53599,1.21882 -0.28919,0.36169 -1.47214,0.89406 -2.62902,1.18474 -2.49891,0.62792 -7.6697,1.17293 -8.41388,0.88596 -0.28921,-0.11152 -1.66301,-0.35761 -3.05364,-0.54519 -2.93187,-0.39553 -5.31131,-2.47456 -6.0994,-5.32882 -0.26713,-0.96741 -0.98439,-2.39176 -1.59366,-3.16634 l -1.10874,-1.40756 1.19523,-1.27911 c 1.31296,-1.40516 7.84363,-5.38647 8.83591,-5.38644 z m -15.62729,5.99457 c 0.13286,-0.0167 0.23935,0.007 0.3093,0.0813 0.44444,0.47326 2.97096,6.31648 3.57,8.25399 0.15644,0.50614 0.0803,0.90373 -0.17037,0.88333 -0.81321,-0.0662 -4.13912,-1.38601 -6.40608,-2.54251 -2.17191,-1.10805 -2.19967,-1.15489 -1.46524,-2.56086 0.95123,-1.82096 3.23223,-3.99852 4.16238,-4.11521 z m -45.3275,0.31454 c 0.88757,0 4.67351,3.93903 4.67351,4.86221 0,0.25532 -1.47931,1.1292 -3.28692,1.94227 -5.02683,2.26105 -5.87088,2.45674 -5.50179,1.27651 1.29079,-4.12752 3.30406,-8.08099 4.1152,-8.08099 z"
       id="path27801"
       inkscape:connector-curvature="0" />
    <path
       style="fill:#000000;stroke-width:2.29144883"
       d="m 275.20725,412.29622 v 22.83281 23.58247 h 157.75377 v -23.58247 -22.83281 z m 145.94549,7.05875 c 2.87491,0 3.16473,0.75898 2.14672,5.59877 -1.52151,7.23316 -5.01585,14.07287 -8.78084,17.18949 -3.31378,2.74304 -8.5178,5.73864 -11.22112,6.45851 -5.22806,1.39219 -14.19888,0.69217 -19.31787,-1.50717 -1.2942,-0.55603 -2.08846,-0.64802 -2.44814,-0.28832 -0.62786,0.62784 -3.30686,-0.14197 -7.08234,-2.03402 -2.31062,-1.15795 -2.46067,-1.35063 -1.9082,-2.42717 0.73072,-1.42412 3.67143,-4.58701 4.26462,-4.58701 0.23614,0 1.00174,1.24432 1.70111,2.76268 1.31316,2.851 3.41565,5.8092 3.43631,4.83602 0.007,-0.30367 -0.19672,-0.77633 -0.45082,-1.05109 -0.8301,-0.89741 -1.10111,-4.13992 -0.44036,-5.2816 1.48216,-2.56103 8.36329,-7.04827 10.807,-7.04827 0.89554,0 0.99974,0.42275 1.00913,4.07327 0.0121,4.60664 1.54619,10.38761 2.75745,10.3876 1.12375,0 2.6804,-5.65512 2.96713,-10.78078 0.37205,-6.65122 0.34724,-6.59447 3.30527,-7.562 3.42854,-1.12141 3.84237,-1.08478 5.29734,0.46394 0.67927,0.72305 1.53137,1.3132 1.89509,1.3132 0.99659,0 2.86082,2.90392 3.19779,4.98017 0.50236,3.09576 1.37435,1.46816 1.06157,-1.98159 -0.20223,-2.22988 -0.874,-4.30874 -2.27254,-7.02729 -1.24121,-2.41289 -1.80003,-4.04506 -1.4888,-4.34848 0.66731,-0.65064 8.71723,-2.13886 11.5645,-2.13886 z m -134.47272,0.003 c 2.22104,0.004 7.84966,0.85315 10.73622,1.61725 l 1.96324,0.51898 -2.16245,4.12831 c -1.7581,3.35818 -2.20864,4.81939 -2.42456,7.83723 -0.356,4.97531 0.46586,6.8763 0.92264,2.13362 0.36702,-3.81052 2.58683,-9.06098 4.19384,-9.92105 0.98706,-0.52826 5.02382,0.57917 8.2304,2.25943 l 1.50978,0.79159 0.0525,5.96573 c 0.056,6.3226 1.3799,11.74799 2.86752,11.74797 0.92447,0 2.43715,-4.95679 3.072,-10.07044 0.26971,-2.17215 0.5946,-4.05452 0.72343,-4.18335 0.33881,-0.33882 5.00634,1.7328 7.60657,3.37604 1.81671,1.14813 2.38543,1.91297 3.09296,4.16238 0.6908,2.19628 0.73706,2.91628 0.22279,3.53592 -0.35484,0.42772 -0.55106,1.05984 -0.4351,1.40756 0.22293,0.66873 2.65408,-3.19165 3.27383,-5.19772 0.20704,-0.67033 0.7895,-1.18214 1.34202,-1.18214 1.08393,0 4.85714,4.10021 4.5739,4.96969 -0.099,0.30379 -2.02231,1.34581 -4.27509,2.31709 -3.47002,1.4961 -4.29416,1.6753 -5.39959,1.17165 -1.06817,-0.48672 -1.6067,-0.41205 -2.96451,0.41152 -0.91219,0.55335 -2.91284,1.26766 -4.44546,1.58843 -4.25687,0.89096 -11.48958,0.70488 -14.62076,-0.37746 -3.48189,-1.20357 -9.53456,-4.87335 -11.63527,-7.0535 -3.62678,-3.76387 -6.77028,-10.49218 -8.02859,-17.18949 -0.73901,-3.93347 -0.38548,-4.76927 2.00781,-4.76524 z"
       id="path27799"
       inkscape:connector-curvature="0" />
    <path
       style="fill:#ffffff;stroke-width:2.29144859"
       d="m 274.51659,412.29622 v 23.3518 23.06348 h 159.1351 v -23.06348 -23.3518 z m 10.97474,6.84643 c 2.79511,-0.0462 7.87015,0.63658 12.01535,1.71947 1.80902,0.4726 2.00213,0.67723 1.71422,1.82433 -0.30645,1.22093 -0.19631,1.29222 1.97897,1.29222 3.15219,0 7.14761,1.45091 8.13081,2.95142 0.51032,0.77885 0.76302,2.18836 0.67886,3.78493 -0.28708,5.45568 -0.007,9.77994 0.81256,12.59985 0.4706,1.61884 1.05494,2.94355 1.30009,2.94355 0.83466,0 2.31607,-6.61627 2.553,-11.4046 0.31089,-6.28383 0.36489,-6.43249 1.99732,-5.36288 0.71614,0.46924 1.60925,0.85316 1.9842,0.8545 1.03543,0.004 8.74093,5.19458 9.90008,6.6682 0.65635,0.83442 1.32681,1.17603 1.8846,0.96196 0.5989,-0.22981 1.80292,0.60243 3.89765,2.69716 l 3.03004,3.03005 -1.14543,0.92788 c -2.31562,1.87507 -12.75102,4.86559 -20.47379,5.86875 -2.1111,0.27425 -4.07508,0.46974 -4.36683,0.43512 -0.29175,-0.0348 -1.24789,-0.14548 -2.12313,-0.2464 -12.30914,-1.41871 -20.33125,-8.41655 -24.32687,-21.22081 -1.764,-5.65285 -2.27896,-9.45391 -1.35775,-10.02327 0.30621,-0.18924 0.98436,-0.28601 1.91605,-0.30143 z m 135.98514,0.0629 c 2.85318,0 3.16436,0.11193 3.44942,1.24767 0.50788,2.02355 -1.71699,10.18626 -4.11782,15.10043 -3.62354,7.41689 -10.0493,12.79486 -17.12658,14.33505 -3.9659,0.86309 -8.1296,1.09679 -11.47538,0.64219 -7.34141,-0.9975 -18.04844,-4.10798 -20.23263,-5.87662 -1.10977,-0.89862 -1.10401,-0.91255 1.71422,-3.8924 1.84066,-1.94623 3.25383,-2.99074 4.04706,-2.99074 0.67052,0 1.53221,-0.44528 1.91343,-0.98816 1.39555,-1.98723 10.87053,-7.4991 12.89081,-7.4991 0.88613,0 1.32143,2.40431 1.53599,8.48726 0.17193,4.87403 0.99977,8.48728 1.94489,8.48728 1.26857,0 2.79688,-9.4884 2.36428,-14.68366 l -0.36172,-4.34063 2.13361,-1.41017 c 1.71536,-1.13517 2.81813,-1.42903 5.63547,-1.49667 3.33167,-0.08 3.48894,-0.14074 3.21091,-1.25554 -0.20395,-0.81775 0.0201,-1.33994 0.73916,-1.72472 1.72386,-0.92259 8.40725,-2.14147 11.73488,-2.14147 z"
       id="path27797"
       inkscape:connector-curvature="0" />
    <path
       style="fill:#ffffff;stroke-width:2.29144859"
       d="m 273.90037,412.1618 v 23.85477 23.56023 h 159.1351 V 436.01657 412.1618 Z m 10.97474,6.99389 c 2.79511,-0.0472 7.87015,0.65029 12.01535,1.75651 1.80902,0.48278 2.00213,0.69182 1.71422,1.86362 -0.30645,1.24723 -0.19631,1.32005 1.97897,1.32005 3.15219,0 7.14761,1.48217 8.13081,3.01499 0.51032,0.79563 0.76302,2.2355 0.67886,3.86646 -0.28708,5.57318 -0.007,9.99058 0.81256,12.87123 0.4706,1.65371 1.05494,3.00695 1.30009,3.00695 0.83466,0 2.31607,-6.75878 2.553,-11.65024 0.31089,-6.41917 0.36489,-6.57104 1.99732,-5.47839 0.71614,0.47935 1.60925,0.87154 1.9842,0.87291 1.03543,0.004 8.74093,5.30646 9.90008,6.81182 0.65635,0.85239 1.32681,1.20136 1.8846,0.98268 0.5989,-0.23476 1.80292,0.6154 3.89765,2.75525 l 3.03004,3.09532 -1.14543,0.94786 c -2.31562,1.91546 -12.75102,4.97039 -20.47379,5.99516 -2.1111,0.28015 -4.07508,0.47985 -4.36683,0.44449 -0.29175,-0.0356 -1.24789,-0.14862 -2.12313,-0.25171 -12.30914,-1.44927 -20.33125,-8.59783 -24.32687,-21.67788 -1.764,-5.7746 -2.27896,-9.65753 -1.35775,-10.23915 0.30621,-0.19332 0.98436,-0.29217 1.91605,-0.30793 z m 135.98514,0.0643 c 2.85318,0 3.16436,0.11434 3.44942,1.27454 0.50788,2.06714 -1.71699,10.40566 -4.11782,15.42567 -3.62354,7.57664 -10.0493,13.07045 -17.12658,14.64381 -3.9659,0.88168 -8.1296,1.12041 -11.47538,0.65602 -7.34141,-1.01898 -18.04844,-4.19646 -20.23263,-6.00319 -1.10977,-0.91798 -1.10401,-0.93221 1.71422,-3.97624 1.84066,-1.98815 3.25383,-3.05515 4.04706,-3.05515 0.67052,0 1.53221,-0.45488 1.91343,-1.00945 1.39555,-2.03003 10.87053,-7.66062 12.89081,-7.66062 0.88613,0 1.32143,2.4561 1.53599,8.67007 0.17193,4.979 0.99977,8.67008 1.94489,8.67008 1.26857,0 2.79688,-9.69277 2.36428,-14.99993 l -0.36172,-4.43412 2.13361,-1.44054 c 1.71536,-1.15962 2.81813,-1.45981 5.63547,-1.52891 3.33167,-0.0817 3.48894,-0.14377 3.21091,-1.28258 -0.20395,-0.83536 0.0201,-1.3688 0.73916,-1.76187 1.72386,-0.94246 8.40725,-2.18759 11.73488,-2.18759 z"
       id="path27797-2"
       inkscape:connector-curvature="0" />
    <path
       inkscape:connector-curvature="0"
       id="path1101"
       d="m 273.90037,412.1618 v 23.85477 23.56023 h 159.1351 V 436.01657 412.1618 Z m 10.97474,6.99389 c 2.79511,-0.0472 7.87015,0.65029 12.01535,1.75651 1.80902,0.48278 2.00213,0.69182 1.71422,1.86362 -0.30645,1.24723 -0.19631,1.32005 1.97897,1.32005 3.15219,0 7.14761,1.48217 8.13081,3.01499 0.51032,0.79563 0.76302,2.2355 0.67886,3.86646 -0.28708,5.57318 -0.007,9.99058 0.81256,12.87123 0.4706,1.65371 1.05494,3.00695 1.30009,3.00695 0.83466,0 2.31607,-6.75878 2.553,-11.65024 0.31089,-6.41917 0.36489,-6.57104 1.99732,-5.47839 0.71614,0.47935 1.60925,0.87154 1.9842,0.87291 1.03543,0.004 8.74093,5.30646 9.90008,6.81182 0.65635,0.85239 1.32681,1.20136 1.8846,0.98268 0.5989,-0.23476 1.80292,0.6154 3.89765,2.75525 l 3.03004,3.09532 -1.14543,0.94786 c -2.31562,1.91546 -12.75102,4.97039 -20.47379,5.99516 -2.1111,0.28015 -4.07508,0.47985 -4.36683,0.44449 -0.29175,-0.0356 -1.24789,-0.14862 -2.12313,-0.25171 -12.30914,-1.44927 -20.33125,-8.59783 -24.32687,-21.67788 -1.764,-5.7746 -2.27896,-9.65753 -1.35775,-10.23915 0.30621,-0.19332 0.98436,-0.29217 1.91605,-0.30793 z m 135.98514,0.0643 c 2.85318,0 3.16436,0.11434 3.44942,1.27454 0.50788,2.06714 -1.71699,10.40566 -4.11782,15.42567 -3.62354,7.57664 -10.0493,13.07045 -17.12658,14.64381 -3.9659,0.88168 -8.1296,1.12041 -11.47538,0.65602 -7.34141,-1.01898 -18.04844,-4.19646 -20.23263,-6.00319 -1.10977,-0.91798 -1.10401,-0.93221 1.71422,-3.97624 1.84066,-1.98815 3.25383,-3.05515 4.04706,-3.05515 0.67052,0 1.53221,-0.45488 1.91343,-1.00945 1.39555,-2.03003 10.87053,-7.66062 12.89081,-7.66062 0.88613,0 1.32143,2.4561 1.53599,8.67007 0.17193,4.979 0.99977,8.67008 1.94489,8.67008 1.26857,0 2.79688,-9.69277 2.36428,-14.99993 l -0.36172,-4.43412 2.13361,-1.44054 c 1.71536,-1.15962 2.81813,-1.45981 5.63547,-1.52891 3.33167,-0.0817 3.48894,-0.14377 3.21091,-1.28258 -0.20395,-0.83536 0.0201,-1.3688 0.73916,-1.76187 1.72386,-0.94246 8.40725,-2.18759 11.73488,-2.18759 z"
       style="fill:#ffffff;stroke-width:2.29144859" />
    <path
       style="fill:#ffffff;stroke-width:2.29144859"
       d="m 273.90037,412.1618 v 23.85477 23.56023 h 159.1351 V 436.01657 412.1618 Z m 10.97474,6.99389 c 2.79511,-0.0472 7.87015,0.65029 12.01535,1.75651 1.80902,0.48278 2.00213,0.69182 1.71422,1.86362 -0.30645,1.24723 -0.19631,1.32005 1.97897,1.32005 3.15219,0 7.14761,1.48217 8.13081,3.01499 0.51032,0.79563 0.76302,2.2355 0.67886,3.86646 -0.28708,5.57318 -0.007,9.99058 0.81256,12.87123 0.4706,1.65371 1.05494,3.00695 1.30009,3.00695 0.83466,0 2.31607,-6.75878 2.553,-11.65024 0.31089,-6.41917 0.36489,-6.57104 1.99732,-5.47839 0.71614,0.47935 1.60925,0.87154 1.9842,0.87291 1.03543,0.004 8.74093,5.30646 9.90008,6.81182 0.65635,0.85239 1.32681,1.20136 1.8846,0.98268 0.5989,-0.23476 1.80292,0.6154 3.89765,2.75525 l 3.03004,3.09532 -1.14543,0.94786 c -2.31562,1.91546 -12.75102,4.97039 -20.47379,5.99516 -2.1111,0.28015 -4.07508,0.47985 -4.36683,0.44449 -0.29175,-0.0356 -1.24789,-0.14862 -2.12313,-0.25171 -12.30914,-1.44927 -20.33125,-8.59783 -24.32687,-21.67788 -1.764,-5.7746 -2.27896,-9.65753 -1.35775,-10.23915 0.30621,-0.19332 0.98436,-0.29217 1.91605,-0.30793 z m 135.98514,0.0643 c 2.85318,0 3.16436,0.11434 3.44942,1.27454 0.50788,2.06714 -1.71699,10.40566 -4.11782,15.42567 -3.62354,7.57664 -10.0493,13.07045 -17.12658,14.64381 -3.9659,0.88168 -8.1296,1.12041 -11.47538,0.65602 -7.34141,-1.01898 -18.04844,-4.19646 -20.23263,-6.00319 -1.10977,-0.91798 -1.10401,-0.93221 1.71422,-3.97624 1.84066,-1.98815 3.25383,-3.05515 4.04706,-3.05515 0.67052,0 1.53221,-0.45488 1.91343,-1.00945 1.39555,-2.03003 10.87053,-7.66062 12.89081,-7.66062 0.88613,0 1.32143,2.4561 1.53599,8.67007 0.17193,4.979 0.99977,8.67008 1.94489,8.67008 1.26857,0 2.79688,-9.69277 2.36428,-14.99993 l -0.36172,-4.43412 2.13361,-1.44054 c 1.71536,-1.15962 2.81813,-1.45981 5.63547,-1.52891 3.33167,-0.0817 3.48894,-0.14377 3.21091,-1.28258 -0.20395,-0.83536 0.0201,-1.3688 0.73916,-1.76187 1.72386,-0.94246 8.40725,-2.18759 11.73488,-2.18759 z"
       id="path1103"
       inkscape:connector-curvature="0" />
  </g>
</svg>
