<?xml version="1.0" encoding="UTF-8" standalone="no"?>
<!-- Created with Inkscape (http://www.inkscape.org/) -->

<svg
   xmlns:dc="http://purl.org/dc/elements/1.1/"
   xmlns:cc="http://creativecommons.org/ns#"
   xmlns:rdf="http://www.w3.org/1999/02/22-rdf-syntax-ns#"
   xmlns:svg="http://www.w3.org/2000/svg"
   xmlns="http://www.w3.org/2000/svg"
   xmlns:xlink="http://www.w3.org/1999/xlink"
   xmlns:sodipodi="http://sodipodi.sourceforge.net/DTD/sodipodi-0.dtd"
   xmlns:inkscape="http://www.inkscape.org/namespaces/inkscape"
   width="91.157021mm"
   height="100.44489mm"
   viewBox="0 0 91.157022 100.44488"
   version="1.1"
   id="svg859"
   inkscape:version="0.92.4 (5da689c313, 2019-01-14)"
   sodipodi:docname="m_grudar_cadeira.svg">
  <defs
     id="defs853">
    <linearGradient
       inkscape:collect="always"
       id="linearGradient825">
      <stop
         style="stop-color:#000000;stop-opacity:1;"
         offset="0"
         id="stop821" />
      <stop
         style="stop-color:#000000;stop-opacity:0;"
         offset="1"
         id="stop823" />
    </linearGradient>
    <linearGradient
       inkscape:collect="always"
       id="linearGradient842">
      <stop
         style="stop-color:#782121;stop-opacity:1;"
         offset="0"
         id="stop838" />
      <stop
         style="stop-color:#782121;stop-opacity:0;"
         offset="1"
         id="stop840" />
    </linearGradient>
    <linearGradient
       inkscape:collect="always"
       xlink:href="#linearGradient842"
       id="linearGradient844"
       x1="163.61479"
       y1="93.903961"
       x2="147.33755"
       y2="114.50294"
       gradientUnits="userSpaceOnUse"
       gradientTransform="matrix(0.97982997,0,0,0.97983544,10.505022,0.16219483)" />
    <linearGradient
       inkscape:collect="always"
       xlink:href="#linearGradient825"
       id="linearGradient827"
       x1="166.84222"
       y1="93.40538"
       x2="163.61479"
       y2="93.903961"
       gradientUnits="userSpaceOnUse"
       gradientTransform="matrix(0.97982997,0,0,0.97983544,10.505022,0.16219483)" />
  </defs>
  <sodipodi:namedview
     id="base"
     pagecolor="#ffffff"
     bordercolor="#666666"
     borderopacity="1.0"
     inkscape:pageopacity="0.0"
     inkscape:pageshadow="2"
     inkscape:zoom="0.98994949"
     inkscape:cx="114.06608"
     inkscape:cy="146.70825"
     inkscape:document-units="mm"
     inkscape:current-layer="layer1"
     showgrid="false"
     fit-margin-top="0"
     fit-margin-left="0"
     fit-margin-right="0"
     fit-margin-bottom="0"
     inkscape:window-width="1920"
     inkscape:window-height="1017"
     inkscape:window-x="-8"
     inkscape:window-y="-8"
     inkscape:window-maximized="1"
     showguides="false" />
  <metadata
     id="metadata856">
    <rdf:RDF>
      <cc:Work
         rdf:about="">
        <dc:format>image/svg+xml</dc:format>
        <dc:type
           rdf:resource="http://purl.org/dc/dcmitype/StillImage" />
        <dc:title />
      </cc:Work>
    </rdf:RDF>
  </metadata>
  <g
     inkscape:label="Layer 1"
     inkscape:groupmode="layer"
     id="layer1"
     transform="translate(-92.230052,-59.856224)">
    <g
       id="g836"
       transform="translate(0.53453924,-0.26726953)">
      <path
         sodipodi:nodetypes="scscccccccccscccccccscccssscscscccccccccsccsscccccccccccccccccccccc"
         inkscape:connector-curvature="0"
         id="path827"
         d="m 135.60751,59.988985 c -1.17346,0.0083 -2.13402,0.127157 -2.80918,0.37267 -3.60084,1.309401 -11.19521,4.648618 -16.43279,11.915793 -5.23758,7.267173 -7.33283,18.331591 -6.67814,22.521674 0.6547,4.190077 7.26737,13.814128 7.98753,14.010538 0.72017,0.19642 -0.13114,1.09624 -0.13114,1.09624 l -5.10645,-0.72003 c 0,0 -3.28962,-0.26177 -3.64971,3.66644 -0.36008,3.9282 -0.46236,3.55302 -0.87901,3.95809 -0.41664,0.40507 -0.10394,2.24542 0.44001,2.29171 0.54396,0.0464 -7.87006,5.85587 -7.87006,5.85587 l -4.932265,6.43867 c 0,0 -4.58309,13.87955 -2.749939,24.09286 1.833151,10.21333 89.169714,0.52407 89.169714,0.52407 l 1.27497,-4.77179 -0.48609,-0.55546 0.2314,-2.45374 -4.18997,-3.72669 -3.77275,-2.45375 -0.0461,-9.2585 c 0,0 1.34231,-6.48156 1.34231,-7.75465 0,-1.27309 -0.18532,-6.52728 -0.18532,-6.52728 l -0.11544,-5.53232 c 0,0 0.69448,-3.35648 0.41672,-4.07404 -0.27778,-0.71756 -1.06424,-1.75973 -1.96765,-1.94436 -0.65839,-0.13456 -1.41204,-0.0925 -1.87498,0.74078 -0.46294,0.8333 -0.76973,-0.85611 -0.99435,-0.92663 -0.90693,-0.28476 -1.32013,-0.55458 -2.45434,0.39446 -1.1342,0.94903 -0.72288,1.48504 -1.41218,1.82841 -0.62156,0.30962 -1.56194,-1.4981 -2.44763,-0.86985 -0.90205,0.77558 -1.2918,1.66881 -2.20463,2.79144 -0.16333,0.20086 -0.67148,0.18482 -0.76407,-0.13925 -0.0926,-0.32406 0.11552,-10.11517 0.11552,-10.11517 0,0 2.10674,-2.661837 0.87994,-3.541429 -1.22678,-0.879593 -5.57836,-6.504497 -5.57836,-6.504497 0,0 -0.54707,-0.664917 -0.007,-1.008636 0.54012,-0.343716 2.12765,-1.489665 2.12765,-1.489665 0,0 0.19648,-1.767749 -0.36001,-2.160569 -0.55649,-0.392821 -0.50736,-0.507356 -0.50736,-0.507356 l -1.99448,-2.819324 c 0,0 -0.67083,-5.30077 -1.22635,-5.601683 -0.55553,-0.300914 0.2081,-0.671412 0.2081,-0.671412 0,0 1.13406,1.43505 1.75903,0.879519 0.62497,-0.555534 8.0627,-8.956781 -0.77571,-12.426694 -7.1812,-2.819316 -16.26434,-4.860406 -21.34936,-4.824459 z m 14.90365,62.573485 2.12916,0.9256 4.76822,-0.50888 2.12967,3.42542 c 0,0 -0.32378,3.37949 1.01876,4.8609 1.34252,1.48142 0.32406,5.13889 0.32406,5.13889 l -1.11142,1.6203 -0.87952,3.88872 -1.20357,1.06484 0.13874,2.17576 -0.50888,1.48156 -2.12967,0.74078 -0.97217,1.01826 -0.64812,-0.4628 c 0,0 -0.787,-0.87966 -1.29623,-1.06484 -0.50924,-0.18518 -2.59247,-2.36108 -2.59247,-2.36108 l -1.1575,-2.45375 c 0,0 1.75947,-2.03702 1.66688,-5.27762 -0.0926,-3.2406 -2.91667,-3.74977 -2.77779,-4.76824 0.13888,-1.01848 -3.74996,-4.90698 -3.74996,-4.90698 0,0 1.48155,-3.28676 2.12967,-2.73122 0.64811,0.55553 4.72214,-1.80562 4.72214,-1.80562 z"
         style="fill:#d38d5f;stroke:none;stroke-width:0.26458332px;stroke-linecap:butt;stroke-linejoin:miter;stroke-opacity:1" />
      <path
         inkscape:connector-curvature="0"
         id="path831"
         d="m 157.75596,100.43372 c 0,0 1.31938,-0.71756 2.17582,-0.0926 0.85644,0.62498 1.22679,-0.601826 1.22679,-0.601826 0,0 -2.24526,-1.782329 -3.40261,0.694416 z"
         style="fill:#916f7c;stroke:none;stroke-width:0.26458332px;stroke-linecap:butt;stroke-linejoin:miter;stroke-opacity:1" />
      <path
         sodipodi:nodetypes="cscc"
         inkscape:connector-curvature="0"
         id="path836"
         d="m 162.44016,101.34478 c 0,0 -0.37287,-0.96596 -1.03958,-0.25905 -2.74477,2.91021 -3.59264,7.85476 -4.05093,11.52108 -0.4583,3.66632 0.0592,10.37224 0.0592,10.37224"
         style="fill:url(#linearGradient827);fill-opacity:1;stroke:url(#linearGradient844);stroke-width:0.26458332px;stroke-linecap:butt;stroke-linejoin:miter;stroke-opacity:1" />
      <path
         sodipodi:nodetypes="csccccccccccssscscc"
         inkscape:connector-curvature="0"
         id="path833"
         d="m 141.83334,97.74511 c 0,0 3.20801,5.8923 7.59447,8.05281 4.38648,2.16052 3.33896,-0.45829 3.33896,-0.45829 0,0 1.89862,-2.94615 4.51741,-3.53538 2.61878,-0.58923 3.46989,-0.19641 3.46989,-0.19641 0,0 1.70221,3.0771 -1.11299,4.58291 -2.81519,1.50581 -4.64834,2.1605 -4.64834,2.1605 l -0.74356,0.85524 c 0,0 3.20587,0.19675 3.42576,-0.28934 0.2199,-0.48609 0.6134,5.21968 0.42822,5.54374 -0.18517,0.32406 -0.69441,0.37036 -0.7407,1.01848 -0.0462,0.64812 0.0463,7.49968 0.0463,7.49968 0,0 -5.16483,1.12221 -6.377,-0.33564 -0.8382,-1.00808 -3.15957,2.69665 -5.15022,1.72447 -1.99064,-0.97218 -4.95346,-0.50924 -7.26816,-3.14802 -2.3147,-2.63877 -6.2034,-5.46273 -6.01822,-8.56444 0.18517,-3.10172 -0.37036,-7.3145 1.38882,-8.93481 1.75917,-1.62029 5.4164,-4.722013 7.84937,-5.9755 z"
         style="fill:#000000;stroke:#000000;stroke-width:0.26458332px;stroke-linecap:butt;stroke-linejoin:miter;stroke-opacity:1" />
      <path
         sodipodi:nodetypes="csccscc"
         inkscape:connector-curvature="0"
         id="path829"
         d="m 141.7556,97.670432 c 0,0 -3.46629,-3.671621 -3.18853,-6.495575 0.27777,-2.823953 -0.18517,-3.148014 -0.18517,-3.148014 l -4.02758,2.175833 c 0,0 2.12953,4.768315 1.75917,7.036737 -0.37035,2.268424 -1.89806,6.157147 -1.89806,6.157147 z"
         style="fill:#000000;stroke:#000000;stroke-width:0.26458332px;stroke-linecap:butt;stroke-linejoin:miter;stroke-opacity:1" />
    </g>
  </g>
</svg>
