<?xml version="1.0" encoding="UTF-8" standalone="no"?>
<!-- Created with Inkscape (http://www.inkscape.org/) -->

<svg
   xmlns:dc="http://purl.org/dc/elements/1.1/"
   xmlns:cc="http://creativecommons.org/ns#"
   xmlns:rdf="http://www.w3.org/1999/02/22-rdf-syntax-ns#"
   xmlns:svg="http://www.w3.org/2000/svg"
   xmlns="http://www.w3.org/2000/svg"
   xmlns:sodipodi="http://sodipodi.sourceforge.net/DTD/sodipodi-0.dtd"
   xmlns:inkscape="http://www.inkscape.org/namespaces/inkscape"
   width="90mm"
   height="100mm"
   viewBox="0 0 89.999998 99.999997"
   version="1.1"
   id="svg859"
   inkscape:version="0.92.4 (5da689c313, 2019-01-14)"
   sodipodi:docname="m_ninjas_cebola.svg">
  <defs
     id="defs853">
    <inkscape:path-effect
       is_visible="true"
       id="path-effect983"
       effect="spiro" />
    <inkscape:path-effect
       is_visible="true"
       id="path-effect967"
       effect="spiro" />
    <inkscape:path-effect
       is_visible="true"
       id="path-effect983-8"
       effect="spiro" />
    <inkscape:path-effect
       is_visible="true"
       id="path-effect967-3"
       effect="spiro" />
    <inkscape:path-effect
       is_visible="true"
       id="path-effect983-2"
       effect="spiro" />
    <inkscape:path-effect
       is_visible="true"
       id="path-effect967-4"
       effect="spiro" />
  </defs>
  <sodipodi:namedview
     id="base"
     pagecolor="#ffffff"
     bordercolor="#666666"
     borderopacity="1.0"
     inkscape:pageopacity="0.0"
     inkscape:pageshadow="2"
     inkscape:zoom="7.9195959"
     inkscape:cx="209.17784"
     inkscape:cy="196.16962"
     inkscape:document-units="mm"
     inkscape:current-layer="layer1"
     showgrid="false"
     fit-margin-top="0"
     fit-margin-left="0"
     fit-margin-right="0"
     fit-margin-bottom="0"
     inkscape:window-width="1920"
     inkscape:window-height="1017"
     inkscape:window-x="-8"
     inkscape:window-y="-8"
     inkscape:window-maximized="1"
     showguides="true"
     inkscape:guide-bbox="true">
    <sodipodi:guide
       position="-24.304119,47.333954"
       orientation="1,0"
       id="guide934"
       inkscape:locked="false" />
    <sodipodi:guide
       position="127.94494,25.135416"
       orientation="1,0"
       id="guide936"
       inkscape:locked="false" />
    <sodipodi:guide
       position="82.965772,-29.860119"
       orientation="0,1"
       id="guide940"
       inkscape:locked="false" />
    <sodipodi:guide
       position="121.51934,21.733631"
       orientation="0,1"
       id="guide842"
       inkscape:locked="false" />
  </sodipodi:namedview>
  <metadata
     id="metadata856">
    <rdf:RDF>
      <cc:Work
         rdf:about="">
        <dc:format>image/svg+xml</dc:format>
        <dc:type
           rdf:resource="http://purl.org/dc/dcmitype/StillImage" />
        <dc:title></dc:title>
      </cc:Work>
    </rdf:RDF>
  </metadata>
  <g
     inkscape:label="Layer 1"
     inkscape:groupmode="layer"
     id="layer1"
     transform="translate(-126.98488,-27.037742)">
    <path
       inkscape:connector-curvature="0"
       style="fill:#f5f6fa;fill-opacity:1;stroke:none;stroke-width:8;stroke-miterlimit:4;stroke-dasharray:none;stroke-opacity:1"
       d="m 214.94815,87.778763 c 0.28917,-0.08458 0.32277,-0.749427 0.37673,-1.018937 0.21688,-1.083128 0.4699,-2.162693 0.59717,-3.260596 0.38794,-3.34415 0.67253,-6.770071 0.34314,-10.138419 -0.11047,-1.124498 -0.32837,-2.201769 -0.48925,-3.311544 -1.28802,-8.886859 -5.48149,-17.353662 -11.72359,-23.843117 -2.05016,-2.13136 -4.37573,-4.034428 -6.77004,-5.756024 -0.76772,-0.551856 -1.60367,-0.943484 -2.39175,-1.449437 -3.0816,-1.978876 -6.54655,-3.536423 -10.08124,-4.542266 -9.97331,-2.837943 -20.97612,-2.516697 -30.54611,1.758124 -8.04126,3.592006 -14.85548,9.448089 -19.68217,16.813422 -2.64672,4.038709 -4.64393,8.592947 -5.74908,13.30018 -0.33876,1.442762 -0.51221,2.881807 -0.75073,4.330481 -0.55044,3.343742 -0.68962,6.8067 -0.29838,10.189365 0.0762,0.658743 0.0328,1.323088 0.12209,1.986926 0.40233,2.990069 1.05251,5.976064 2.05788,8.8138 3.26843,9.225449 9.58394,17.409039 17.8348,22.738589 7.66856,4.95305 16.53761,7.2263 25.60783,7.0653 1.34453,-0.0239 2.70027,-0.26237 4.02291,-0.40349 13.2229,-1.41072 25.11399,-9.20406 32.22716,-20.43376 1.77372,-2.800541 3.21295,-5.827802 4.27443,-8.966639 0.4144,-1.226286 1.0182,-2.563643 1.0182,-3.871958 z"
       id="path24" />
    <flowRoot
       xml:space="preserve"
       id="flowRoot6835-3"
       style="font-style:normal;font-variant:normal;font-weight:normal;font-stretch:normal;font-size:400px;line-height:1.25;font-family:'Ink Free';-inkscape-font-specification:'Ink Free';letter-spacing:0px;word-spacing:0px;fill:#000000;fill-opacity:1;stroke:none"
       transform="matrix(0.26458333,0,0,0.26458333,-511.34891,36.50406)"><flowRegion
         id="flowRegion6837-4"><rect
           id="rect6839-8"
           width="1524"
           height="1008"
           x="220"
           y="-92.763336" /></flowRegion><flowPara
         id="flowPara6841-1" /></flowRoot>    <g
       id="g986"
       style="fill:#ffffff;stroke:#f5f6fa;stroke-opacity:1">
      <g
         transform="translate(-0.52916667,-0.52916667)"
         id="g928"
         style="stroke-width:8;stroke-miterlimit:4;stroke-dasharray:none;fill:#ffffff;stroke:#f5f6fa;stroke-opacity:1">
        <path
           style="opacity:1;fill:#ffffff;fill-opacity:1;stroke:#f5f6fa;stroke-width:8;stroke-miterlimit:4;stroke-dasharray:none;stroke-opacity:1;paint-order:markers fill stroke"
           d="m 148.83678,36.652142 c -9.03995,1.09e-4 -16.36817,7.328559 -16.368,16.368508 10e-4,3.161025 0.0793,5.179173 1.80049,7.830531 l 0.92471,-0.01602 10.68949,-8.409822 10.36423,-12.487274 c 0,0 -0.51941,-0.54708 0.45858,-0.986177 -2.68954,-1.799722 -4.63337,-2.296868 -7.8695,-2.299746 z"
           id="path932"
           inkscape:connector-curvature="0"
           sodipodi:nodetypes="cccccccc" />
      </g>
      <path
         style="opacity:1;fill:#ffffff;fill-opacity:1;stroke:#f5f6fa;stroke-width:8;stroke-miterlimit:4;stroke-dasharray:none;stroke-opacity:1;paint-order:markers fill stroke"
         d="m 195.92054,36.122975 c 9.03995,1.09e-4 16.36817,7.328559 16.368,16.368508 -0.001,3.161025 -0.36281,5.651643 -2.08397,8.303001 l -0.64123,-0.48849 -10.68949,-8.409822 -10.36423,-12.487274 c 0,0 0.50439,-0.576435 -0.4736,-1.015532 2.68954,-1.799722 4.64839,-2.267513 7.88452,-2.270391 z"
         id="path930"
         inkscape:connector-curvature="0"
         sodipodi:nodetypes="cccccccc" />
    </g>
    <path
       id="path894"
       d="m 210.29558,85.813788 c 0.25785,-0.07542 0.28781,-0.66827 0.33594,-0.908594 0.19339,-0.965834 0.41901,-1.928491 0.5325,-2.9075 0.34592,-2.982006 0.5997,-6.036927 0.30597,-9.04051 -0.0985,-1.002725 -0.2928,-1.963336 -0.43626,-2.952931 -1.14854,-7.924484 -4.88789,-15.474401 -10.45402,-21.261101 -1.82815,-1.90055 -3.90188,-3.597532 -6.0369,-5.132693 -0.68459,-0.492094 -1.43,-0.841312 -2.13274,-1.292474 -2.7479,-1.76458 -5.83762,-3.153458 -8.98953,-4.050376 -8.89328,-2.530616 -18.70457,-2.244159 -27.23821,1.567734 -7.17046,3.203021 -13.24675,8.424937 -17.55075,14.992665 -2.36011,3.601349 -4.14103,7.662399 -5.1265,11.859878 -0.30208,1.286522 -0.45675,2.56973 -0.66944,3.861525 -0.49083,2.981641 -0.61494,6.069589 -0.26607,9.085938 0.0679,0.587407 0.0292,1.179809 0.10888,1.771759 0.35875,2.666269 0.93853,5.328905 1.83502,7.859336 2.91449,8.226405 8.54608,15.523776 15.90344,20.276176 6.83812,4.41668 14.74672,6.44375 22.83471,6.30019 1.19893,-0.0213 2.40786,-0.23396 3.58726,-0.3598 11.79096,-1.25794 22.39435,-8.20733 28.73722,-18.220941 1.58164,-2.49727 2.86501,-5.196698 3.81155,-7.995625 0.36952,-1.093489 0.90793,-2.28602 0.90793,-3.452656 z"
       style="fill:#ffffff;fill-opacity:1;stroke:none;stroke-width:8;stroke-miterlimit:4;stroke-dasharray:none"
       inkscape:connector-curvature="0" />
    <path
       style="opacity:1;fill:#000000;fill-opacity:1;stroke:none;stroke-width:6;stroke-miterlimit:4;stroke-dasharray:none;stroke-opacity:1;paint-order:markers fill stroke"
       d="m 172.24106,75.212344 c -15.92051,0.0144 -29.68947,11.483843 -33.12321,21.091696 4.01337,-5.02546 17.75247,-13.152883 33.473,-13.159479 14.25281,8.33e-4 27.0516,8.773118 32.26106,13.159479 -4.17549,-8.992343 -17.47366,-21.079684 -32.61085,-21.091696 z"
       id="path951"
       inkscape:connector-curvature="0"
       sodipodi:nodetypes="ccccc" />
    <circle
       style="opacity:1;fill:#000000;fill-opacity:1;stroke:none;stroke-width:5;stroke-miterlimit:4;stroke-dasharray:none;stroke-opacity:1;paint-order:markers fill stroke"
       id="circle908"
       cx="149.18356"
       cy="54.196114"
       r="16.368191" />
    <path
       transform="scale(-1,1)"
       style="opacity:1;fill:#000000;fill-opacity:1;stroke:none;stroke-width:5;stroke-miterlimit:4;stroke-dasharray:none;stroke-opacity:1;paint-order:markers fill stroke"
       d="m -178.6764,54.196114 c 0,9.039901 -5.37941,15.853221 -14.41931,15.853221 -0.29017,0 -2.48319,0.0094 -2.81376,0.960164 -0.91019,2.618004 2.60636,9.171233 -1.72398,9.186865 -3.80757,0.01375 -1.20738,-4.176648 -1.97925,-9.607056 -0.29498,-0.968925 -0.37255,-0.598823 -1.70864,-1.161449 -0.68765,-0.29336 -1.57375,-0.671863 -2.24601,-1.029243 -5.1733,-2.750178 -7.84543,-7.935035 -7.84543,-14.202502 0,-9.039902 7.32829,-16.36819 16.36819,-16.368191 9.0399,1e-6 16.36819,7.328289 16.36819,16.368191 z"
       id="circle932"
       inkscape:connector-curvature="0"
       sodipodi:nodetypes="ssssccssss" />
  </g>
</svg>
