<?xml version="1.0" encoding="UTF-8" standalone="no"?>
<!-- Created with Inkscape (http://www.inkscape.org/) -->

<svg
   xmlns:dc="http://purl.org/dc/elements/1.1/"
   xmlns:cc="http://creativecommons.org/ns#"
   xmlns:rdf="http://www.w3.org/1999/02/22-rdf-syntax-ns#"
   xmlns:svg="http://www.w3.org/2000/svg"
   xmlns="http://www.w3.org/2000/svg"
   xmlns:xlink="http://www.w3.org/1999/xlink"
   xmlns:sodipodi="http://sodipodi.sourceforge.net/DTD/sodipodi-0.dtd"
   xmlns:inkscape="http://www.inkscape.org/namespaces/inkscape"
   width="115.69433mm"
   height="102.53571mm"
   viewBox="0 0 115.69433 102.53571"
   version="1.1"
   id="svg859"
   inkscape:version="0.92.4 (5da689c313, 2019-01-14)"
   sodipodi:docname="m_tranquilo.svg">
  <defs
     id="defs853">
    <linearGradient
       inkscape:collect="always"
       id="linearGradient1511">
      <stop
         style="stop-color:#fbc531;stop-opacity:1"
         offset="0"
         id="stop1505" />
      <stop
         style="stop-color:#f5f6fa;stop-opacity:1"
         offset="1"
         id="stop1509" />
    </linearGradient>
    <linearGradient
       inkscape:collect="always"
       xlink:href="#linearGradient1274"
       id="linearGradient1268"
       x1="119.72796"
       y1="230.27669"
       x2="176.43604"
       y2="232.09933"
       gradientUnits="userSpaceOnUse"
       gradientTransform="matrix(0.2646798,0,0,0.26458333,12.05185,39.619751)" />
    <linearGradient
       id="linearGradient1274"
       inkscape:collect="always">
      <stop
         id="stop1270"
         offset="0"
         style="stop-color:#c23616;stop-opacity:1;" />
      <stop
         style="stop-color:#f6e2dd;stop-opacity:1;"
         offset="0.8559429"
         id="stop1438" />
      <stop
         id="stop1272"
         offset="1"
         style="stop-color:#ffffff;stop-opacity:1" />
    </linearGradient>
    <linearGradient
       inkscape:collect="always"
       xlink:href="#linearGradient1511"
       id="linearGradient1503"
       x1="510.70703"
       y1="311.86511"
       x2="510.70703"
       y2="560.3056"
       gradientUnits="userSpaceOnUse"
       gradientTransform="matrix(0.20810883,0,0,0.20810883,29.004805,18.76586)" />
  </defs>
  <sodipodi:namedview
     id="base"
     pagecolor="#ffffff"
     bordercolor="#666666"
     borderopacity="1.0"
     inkscape:pageopacity="0.0"
     inkscape:pageshadow="2"
     inkscape:zoom="0.98994949"
     inkscape:cx="122.51863"
     inkscape:cy="223.20842"
     inkscape:document-units="mm"
     inkscape:current-layer="layer1"
     showgrid="false"
     fit-margin-top="0"
     fit-margin-left="0"
     fit-margin-right="0"
     fit-margin-bottom="0"
     inkscape:window-width="1920"
     inkscape:window-height="1017"
     inkscape:window-x="-8"
     inkscape:window-y="-8"
     inkscape:window-maximized="1" />
  <metadata
     id="metadata856">
    <rdf:RDF>
      <cc:Work
         rdf:about="">
        <dc:format>image/svg+xml</dc:format>
        <dc:type
           rdf:resource="http://purl.org/dc/dcmitype/StillImage" />
        <dc:title />
      </cc:Work>
    </rdf:RDF>
  </metadata>
  <g
     inkscape:label="Layer 1"
     inkscape:groupmode="layer"
     id="layer1"
     transform="translate(-78.773762,-58.527404)">
    <circle
       style="opacity:1;fill:#ffffff;fill-opacity:1;stroke:none;stroke-width:5.99999952;stroke-miterlimit:4;stroke-dasharray:none;stroke-opacity:1;paint-order:markers fill stroke"
       id="path823"
       cx="136.62093"
       cy="109.79526"
       r="50.668171" />
    <path
       style="fill:url(#linearGradient1503);fill-opacity:1;stroke:none;stroke-width:0.26458332px;stroke-linecap:butt;stroke-linejoin:miter;stroke-opacity:1"
       d="m 135.28743,65.588722 c -1.49998,0.0342 -3.11173,0.722672 -4.69301,2.524131 -4.15188,4.729987 -1.99695,7.462654 -1.99695,7.462654 l -0.94625,0.420688 c 0,0 -0.31517,3.678692 0.10527,3.941469 0.42045,0.262777 1.3662,0.52588 1.68154,0.210545 0.31533,-0.31533 1.20903,5.57053 0.42069,5.938419 l -1.68195,1.576668 c 0,0 -7.93574,-0.47295 -9.88029,1.734377 -1.94454,2.207329 -3.94187,14.032297 -3.94187,14.032297 0,0 -1.57639,5.46592 -4.1516,7.30535 -2.57522,1.83945 -8.56661,8.04105 -8.56661,8.04105 l -4.940132,-1.73437 -2.41764,0.78812 -1.103545,0.36786 c 0,0 -2.148564,2.24997 -2.207498,3.67889 -0.05716,1.38567 0.697989,2.94436 1.839649,3.73173 0.30418,0.20979 0.826607,-0.13975 1.103547,0.10486 0.24216,0.2139 -0.02916,0.72917 0.21014,0.94626 0.535883,0.48613 1.525103,-0.094 2.154659,0.26257 0.347619,0.1969 0.35016,0.84262 0.736103,0.94583 0.493383,0.13195 0.910128,-0.62183 1.418962,-0.57799 0.493997,0.0426 0.766727,0.82443 1.261247,0.78854 2.268548,-0.16459 5.203118,-4.41459 5.203118,-4.41459 l 2.10182,0.68286 c 0,0 -1.73404,2.3125 2.15507,6.98994 1.52319,1.83195 2.07102,2.50209 2.33064,2.82695 l 2.08394,1.21979 c 0,0 -4.04685,2.94305 -0.84097,7.56792 3.20588,4.62488 17.13321,-2.20708 17.13321,-2.20708 0,0 3.35764,-2.40698 5.99138,-2.04961 2.24538,0.30467 4.51116,-0.0896 4.99265,1.99689 0,0 5.78097,1.62946 6.98975,3.52146 1.20877,1.89199 17.08077,1.05112 17.08077,1.05112 l 5.15028,-1.52424 c 0,0 1.15634,-2.4702 -0.57799,-3.9943 -1.73432,-1.52412 -4.36244,-3.52131 -5.4661,-3.46876 -1.10367,0.0525 -6.25383,1.05111 -6.25383,1.05111 l -0.36785,-1.10354 c 0,0 6.51674,-2.10199 7.77807,-4.30931 1.26133,-2.20733 2.73283,-6.25424 -0.15771,-7.30535 -2.89055,-1.05111 1.7868,-0.0524 1.7868,-0.0524 l 3.25861,1.73437 1.57667,-0.1577 c 0,0 1.07944,0.4561 1.62911,0.36785 0.50438,-0.0809 0.82807,-0.63125 1.31409,-0.78855 0.58543,-0.18947 1.39577,0.26887 1.83924,-0.1577 0.30536,-0.29372 0.15771,-1.26125 0.15771,-1.26125 0,0 2.73606,-1.68736 2.99563,-3.10091 0.31324,-1.70588 -2.04979,-4.78244 -2.04979,-4.78244 0,0 -1.57651,-0.94599 -1.99695,-0.52555 -0.42045,0.42044 -2.52251,1.78681 -2.52251,1.78681 l -1.78681,0.0528 -1.94492,1.89168 c 0,0 -7.72555,-8.61901 -8.46133,-8.98689 -0.73577,-0.36789 -3.31096,-4.36205 -4.04674,-9.67016 -0.73578,-5.308079 -3.78376,-11.614651 -3.78376,-11.614651 0,0 -8.04102,-2.575222 -9.98557,-2.102224 -1.94455,0.472998 -2.68062,-3.153336 -2.68062,-3.153336 0,0 0.63075,-3.941671 0.84097,-3.678894 0.21023,0.262777 1.05111,-0.367847 1.05111,-0.367847 0,0 0.94625,-3.836399 -0.10486,-4.099176 -1.0511,-0.262776 0.99841,-4.992914 -0.99868,-7.305352 -1.18579,-1.373008 -3.20552,-2.968526 -5.51976,-3.048062 -0.099,-0.0033 -0.19835,-0.0039 -0.29835,-0.0016 z m -23.80489,68.575108 -0.0707,-0.0414 c 0,0 0.474,0.54605 0.0707,0.0414 z m 10.17742,-26.26643 -0.10527,5.93882 -4.02032,7.8045 -3.07449,-1.28768 c 0,0 4.72987,-5.04528 4.70359,-6.59567 -0.0263,-1.55038 2.49649,-5.85997 2.49649,-5.85997 z m 27.78781,0.69383 c 1.07772,2.97298 9.10477,12.96982 9.10477,12.96982 l -4.49669,1.78355 c 0,0 -1.44933,-4.57089 -2.0811,-4.8682 -0.63176,-0.29729 -2.52698,-9.88517 -2.52698,-9.88517 z"
       id="path1461"
       inkscape:connector-curvature="0"
       sodipodi:nodetypes="csccscccsccccccssssssssccsccscscccccccccscccssscsccccccccscccccccccccccccccccccc" />
    <path
       id="rect1240"
       d="m 26.972132,97.939709 -0.0539,1.17548 -0.0288,1.498721 0.011,1.14402 0.0717,2.16901 44.351148,-0.0117 c 2.51606,-2.57027 3.74227,-5.985911 3.74275,-5.987231 z"
       style="opacity:1;fill:url(#linearGradient1268);fill-opacity:1;stroke:none;stroke-width:5.99999952;stroke-miterlimit:4;stroke-dasharray:none;stroke-opacity:1;paint-order:markers fill stroke"
       inkscape:connector-curvature="0"
       sodipodi:nodetypes="cccccccc" />
  </g>
</svg>
